<svg xmlns="http://www.w3.org/2000/svg" width="856" height="540" viewBox="0 0 85.6 54">
  <title>soundtag tag preview</title>
  <rect width="85.6" height="54" fill="#0d0f13"/>
  <path d="M 82.4 54 L 82.714 53.985 L 83.024 53.939 L 83.329 53.862 L 83.625 53.756 L 83.908 53.622 L 84.178 53.461 L 84.43 53.274 L 84.663 53.063 L 84.874 52.83 L 85.061 52.578 L 85.222 52.308 L 85.356 52.025 L 85.462 51.729 L 85.539 51.424 L 85.585 51.114 L 85.6 50.8 L 85.6 3.2 L 85.585 2.886 L 85.539 2.576 L 85.462 2.271 L 85.356 1.975 L 85.222 1.692 L 85.061 1.422 L 84.874 1.17 L 84.663 0.937 L 84.43 0.726 L 84.178 0.539 L 83.908 0.378 L 83.625 0.244 L 83.329 0.138 L 83.024 0.061 L 82.714 0.015 L 82.4 0 L 3.2 0 L 2.886 0.015 L 2.576 0.061 L 2.271 0.138 L 1.975 0.244 L 1.692 0.378 L 1.422 0.539 L 1.17 0.726 L 0.937 0.937 L 0.726 1.17 L 0.539 1.422 L 0.378 1.692 L 0.244 1.975 L 0.138 2.271 L 0.061 2.576 L 0.015 2.886 L 0 3.2 L 0 50.8 L 0.015 51.114 L 0.061 51.424 L 0.138 51.729 L 0.244 52.025 L 0.378 52.308 L 0.539 52.578 L 0.726 52.83 L 0.937 53.063 L 1.17 53.274 L 1.422 53.461 L 1.692 53.622 L 1.975 53.756 L 2.271 53.862 L 2.576 53.939 L 2.886 53.985 L 3.2 54 Z" fill="#16181d" fill-rule="evenodd"/>
  <g fill="#000000" opacity="0.3" transform="translate(0 0.18)">
    <path d="M 6 20.544 L 6.004 20.63 L 6.017 20.716 L 6.038 20.8 L 6.067 20.881 L 6.104 20.96 L 6.149 21.034 L 6.2 21.103 L 6.258 21.167 L 6.322 21.226 L 6.392 21.277 L 6.466 21.322 L 6.544 21.359 L 6.626 21.388 L 6.71 21.409 L 6.795 21.421 L 6.882 21.426 L 6.968 21.421 L 7.054 21.409 L 7.138 21.388 L 7.219 21.359 L 7.298 21.322 L 7.372 21.277 L 7.441 21.226 L 7.505 21.167 L 7.564 21.103 L 7.615 21.034 L 7.66 20.96 L 7.697 20.881 L 7.726 20.8 L 7.747 20.716 L 7.76 20.63 L 7.764 20.544 L 7.764 19.416 L 7.76 19.33 L 7.747 19.244 L 7.726 19.16 L 7.697 19.079 L 7.66 19 L 7.615 18.926 L 7.564 18.857 L 7.505 18.793 L 7.441 18.734 L 7.372 18.683 L 7.298 18.638 L 7.219 18.601 L 7.138 18.572 L 7.054 18.551 L 6.968 18.539 L 6.882 18.534 L 6.795 18.539 L 6.71 18.551 L 6.626 18.572 L 6.544 18.601 L 6.466 18.638 L 6.392 18.683 L 6.322 18.734 L 6.258 18.793 L 6.2 18.857 L 6.149 18.926 L 6.104 19 L 6.067 19.079 L 6.038 19.16 L 6.017 19.244 L 6.004 19.33 L 6 19.416 Z"/>
    <path d="M 9.265 22.384 L 9.269 22.47 L 9.282 22.556 L 9.303 22.64 L 9.332 22.721 L 9.369 22.8 L 9.413 22.874 L 9.465 22.943 L 9.523 23.007 L 9.587 23.066 L 9.657 23.117 L 9.731 23.162 L 9.809 23.199 L 9.891 23.228 L 9.975 23.249 L 10.06 23.261 L 10.147 23.266 L 10.233 23.261 L 10.319 23.249 L 10.403 23.228 L 10.484 23.199 L 10.562 23.162 L 10.637 23.117 L 10.706 23.066 L 10.77 23.007 L 10.828 22.943 L 10.88 22.874 L 10.924 22.8 L 10.961 22.721 L 10.99 22.64 L 11.012 22.556 L 11.024 22.47 L 11.028 22.384 L 11.028 17.576 L 11.024 17.49 L 11.012 17.404 L 10.99 17.32 L 10.961 17.239 L 10.924 17.16 L 10.88 17.086 L 10.828 17.017 L 10.77 16.953 L 10.706 16.894 L 10.637 16.843 L 10.562 16.798 L 10.484 16.761 L 10.403 16.732 L 10.319 16.711 L 10.233 16.699 L 10.147 16.694 L 10.06 16.699 L 9.975 16.711 L 9.891 16.732 L 9.809 16.761 L 9.731 16.798 L 9.657 16.843 L 9.587 16.894 L 9.523 16.953 L 9.465 17.017 L 9.413 17.086 L 9.369 17.16 L 9.332 17.239 L 9.303 17.32 L 9.282 17.404 L 9.269 17.49 L 9.265 17.576 Z"/>
    <path d="M 12.529 22.384 L 12.534 22.47 L 12.546 22.556 L 12.567 22.64 L 12.597 22.721 L 12.634 22.8 L 12.678 22.874 L 12.73 22.943 L 12.788 23.007 L 12.852 23.066 L 12.921 23.117 L 12.996 23.162 L 13.074 23.199 L 13.155 23.228 L 13.239 23.249 L 13.325 23.261 L 13.411 23.266 L 13.498 23.261 L 13.583 23.249 L 13.667 23.228 L 13.749 23.199 L 13.827 23.162 L 13.901 23.117 L 13.971 23.066 L 14.035 23.007 L 14.093 22.943 L 14.145 22.874 L 14.189 22.8 L 14.226 22.721 L 14.255 22.64 L 14.276 22.556 L 14.289 22.47 L 14.293 22.384 L 14.293 17.576 L 14.289 17.49 L 14.276 17.404 L 14.255 17.32 L 14.226 17.239 L 14.189 17.16 L 14.145 17.086 L 14.093 17.017 L 14.035 16.953 L 13.971 16.894 L 13.901 16.843 L 13.827 16.798 L 13.749 16.761 L 13.667 16.732 L 13.583 16.711 L 13.498 16.699 L 13.411 16.694 L 13.325 16.699 L 13.239 16.711 L 13.155 16.732 L 13.074 16.761 L 12.996 16.798 L 12.921 16.843 L 12.852 16.894 L 12.788 16.953 L 12.73 17.017 L 12.678 17.086 L 12.634 17.16 L 12.597 17.239 L 12.567 17.32 L 12.546 17.404 L 12.534 17.49 L 12.529 17.576 Z"/>
    <path d="M 15.797 22.384 L 15.801 22.47 L 15.814 22.556 L 15.835 22.64 L 15.864 22.721 L 15.901 22.8 L 15.945 22.874 L 15.997 22.943 L 16.055 23.007 L 16.119 23.066 L 16.189 23.117 L 16.263 23.162 L 16.341 23.199 L 16.423 23.228 L 16.507 23.249 L 16.592 23.261 L 16.679 23.266 L 16.765 23.261 L 16.851 23.249 L 16.935 23.228 L 17.016 23.199 L 17.094 23.162 L 17.169 23.117 L 17.238 23.066 L 17.302 23.007 L 17.36 22.943 L 17.412 22.874 L 17.456 22.8 L 17.493 22.721 L 17.522 22.64 L 17.544 22.556 L 17.556 22.47 L 17.56 22.384 L 17.56 17.576 L 17.556 17.49 L 17.544 17.404 L 17.522 17.32 L 17.493 17.239 L 17.456 17.16 L 17.412 17.086 L 17.36 17.017 L 17.302 16.953 L 17.238 16.894 L 17.169 16.843 L 17.094 16.798 L 17.016 16.761 L 16.935 16.732 L 16.851 16.711 L 16.765 16.699 L 16.679 16.694 L 16.592 16.699 L 16.507 16.711 L 16.423 16.732 L 16.341 16.761 L 16.263 16.798 L 16.189 16.843 L 16.119 16.894 L 16.055 16.953 L 15.997 17.017 L 15.945 17.086 L 15.901 17.16 L 15.864 17.239 L 15.835 17.32 L 15.814 17.404 L 15.801 17.49 L 15.797 17.576 Z"/>
    <path d="M 19.061 20.544 L 19.066 20.63 L 19.078 20.716 L 19.099 20.8 L 19.129 20.881 L 19.166 20.96 L 19.21 21.034 L 19.262 21.103 L 19.32 21.167 L 19.384 21.226 L 19.453 21.277 L 19.528 21.322 L 19.606 21.359 L 19.687 21.388 L 19.771 21.409 L 19.857 21.421 L 19.943 21.426 L 20.03 21.421 L 20.115 21.409 L 20.199 21.388 L 20.281 21.359 L 20.359 21.322 L 20.433 21.277 L 20.503 21.226 L 20.567 21.167 L 20.625 21.103 L 20.677 21.034 L 20.721 20.96 L 20.758 20.881 L 20.787 20.8 L 20.808 20.716 L 20.821 20.63 L 20.825 20.544 L 20.825 19.416 L 20.821 19.33 L 20.808 19.244 L 20.787 19.16 L 20.758 19.079 L 20.721 19 L 20.677 18.926 L 20.625 18.857 L 20.567 18.793 L 20.503 18.734 L 20.433 18.683 L 20.359 18.638 L 20.281 18.601 L 20.199 18.572 L 20.115 18.551 L 20.03 18.539 L 19.943 18.534 L 19.857 18.539 L 19.771 18.551 L 19.687 18.572 L 19.606 18.601 L 19.528 18.638 L 19.453 18.683 L 19.384 18.734 L 19.32 18.793 L 19.262 18.857 L 19.21 18.926 L 19.166 19 L 19.129 19.079 L 19.099 19.16 L 19.078 19.244 L 19.066 19.33 L 19.061 19.416 Z"/>
    <path d="M 22.326 24.224 L 22.33 24.31 L 22.343 24.396 L 22.364 24.48 L 22.393 24.561 L 22.43 24.64 L 22.475 24.714 L 22.526 24.783 L 22.584 24.847 L 22.648 24.906 L 22.718 24.957 L 22.792 25.002 L 22.87 25.039 L 22.952 25.068 L 23.036 25.089 L 23.122 25.101 L 23.208 25.106 L 23.294 25.101 L 23.38 25.089 L 23.464 25.068 L 23.545 25.039 L 23.624 25.002 L 23.698 24.957 L 23.767 24.906 L 23.832 24.847 L 23.89 24.783 L 23.941 24.714 L 23.986 24.64 L 24.023 24.561 L 24.052 24.48 L 24.073 24.396 L 24.086 24.31 L 24.09 24.224 L 24.09 15.736 L 24.086 15.65 L 24.073 15.564 L 24.052 15.48 L 24.023 15.399 L 23.986 15.32 L 23.941 15.246 L 23.89 15.177 L 23.832 15.113 L 23.767 15.054 L 23.698 15.003 L 23.624 14.958 L 23.545 14.921 L 23.464 14.892 L 23.38 14.871 L 23.294 14.859 L 23.208 14.854 L 23.122 14.859 L 23.036 14.871 L 22.952 14.892 L 22.87 14.921 L 22.792 14.958 L 22.718 15.003 L 22.648 15.054 L 22.584 15.113 L 22.526 15.177 L 22.475 15.246 L 22.43 15.32 L 22.393 15.399 L 22.364 15.48 L 22.343 15.564 L 22.33 15.65 L 22.326 15.736 Z"/>
    <path d="M 25.591 23.304 L 25.595 23.39 L 25.608 23.476 L 25.629 23.56 L 25.658 23.641 L 25.695 23.72 L 25.739 23.794 L 25.791 23.863 L 25.849 23.927 L 25.913 23.986 L 25.983 24.037 L 26.057 24.082 L 26.135 24.119 L 26.217 24.148 L 26.301 24.169 L 26.386 24.181 L 26.473 24.186 L 26.559 24.181 L 26.645 24.169 L 26.729 24.148 L 26.81 24.119 L 26.888 24.082 L 26.963 24.037 L 27.032 23.986 L 27.096 23.927 L 27.154 23.863 L 27.206 23.794 L 27.25 23.72 L 27.287 23.641 L 27.317 23.56 L 27.338 23.476 L 27.35 23.39 L 27.355 23.304 L 27.355 16.656 L 27.35 16.57 L 27.338 16.484 L 27.317 16.4 L 27.287 16.319 L 27.25 16.24 L 27.206 16.166 L 27.154 16.097 L 27.096 16.033 L 27.032 15.974 L 26.963 15.923 L 26.888 15.878 L 26.81 15.841 L 26.729 15.812 L 26.645 15.791 L 26.559 15.779 L 26.473 15.774 L 26.386 15.779 L 26.301 15.791 L 26.217 15.812 L 26.135 15.841 L 26.057 15.878 L 25.983 15.923 L 25.913 15.974 L 25.849 16.033 L 25.791 16.097 L 25.739 16.166 L 25.695 16.24 L 25.658 16.319 L 25.629 16.4 L 25.608 16.484 L 25.595 16.57 L 25.591 16.656 Z"/>
    <path d="M 28.858 24.224 L 28.862 24.31 L 28.875 24.396 L 28.896 24.48 L 28.925 24.561 L 28.962 24.64 L 29.007 24.714 L 29.058 24.783 L 29.116 24.847 L 29.18 24.906 L 29.25 24.957 L 29.324 25.002 L 29.402 25.039 L 29.484 25.068 L 29.568 25.089 L 29.654 25.101 L 29.74 25.106 L 29.826 25.101 L 29.912 25.089 L 29.996 25.068 L 30.077 25.039 L 30.156 25.002 L 30.23 24.957 L 30.299 24.906 L 30.364 24.847 L 30.422 24.783 L 30.473 24.714 L 30.518 24.64 L 30.555 24.561 L 30.584 24.48 L 30.605 24.396 L 30.618 24.31 L 30.622 24.224 L 30.622 15.736 L 30.618 15.65 L 30.605 15.564 L 30.584 15.48 L 30.555 15.399 L 30.518 15.32 L 30.473 15.246 L 30.422 15.177 L 30.364 15.113 L 30.299 15.054 L 30.23 15.003 L 30.156 14.958 L 30.077 14.921 L 29.996 14.892 L 29.912 14.871 L 29.826 14.859 L 29.74 14.854 L 29.654 14.859 L 29.568 14.871 L 29.484 14.892 L 29.402 14.921 L 29.324 14.958 L 29.25 15.003 L 29.18 15.054 L 29.116 15.113 L 29.058 15.177 L 29.007 15.246 L 28.962 15.32 L 28.925 15.399 L 28.896 15.48 L 28.875 15.564 L 28.862 15.65 L 28.858 15.736 Z"/>
    <path d="M 32.123 25.144 L 32.127 25.23 L 32.14 25.316 L 32.161 25.4 L 32.19 25.481 L 32.227 25.56 L 32.271 25.634 L 32.323 25.703 L 32.381 25.767 L 32.445 25.826 L 32.515 25.877 L 32.589 25.922 L 32.667 25.959 L 32.749 25.988 L 32.833 26.009 L 32.918 26.021 L 33.005 26.026 L 33.091 26.021 L 33.177 26.009 L 33.261 25.988 L 33.342 25.959 L 33.42 25.922 L 33.495 25.877 L 33.564 25.826 L 33.628 25.767 L 33.686 25.703 L 33.738 25.634 L 33.782 25.56 L 33.819 25.481 L 33.849 25.4 L 33.87 25.316 L 33.882 25.23 L 33.887 25.144 L 33.887 14.816 L 33.882 14.73 L 33.87 14.644 L 33.849 14.56 L 33.819 14.479 L 33.782 14.4 L 33.738 14.326 L 33.686 14.257 L 33.628 14.193 L 33.564 14.134 L 33.495 14.083 L 33.42 14.038 L 33.342 14.001 L 33.261 13.972 L 33.177 13.951 L 33.091 13.939 L 33.005 13.934 L 32.918 13.939 L 32.833 13.951 L 32.749 13.972 L 32.667 14.001 L 32.589 14.038 L 32.515 14.083 L 32.445 14.134 L 32.381 14.193 L 32.323 14.257 L 32.271 14.326 L 32.227 14.4 L 32.19 14.479 L 32.161 14.56 L 32.14 14.644 L 32.127 14.73 L 32.123 14.816 Z"/>
    <path d="M 35.387 23.304 L 35.392 23.39 L 35.404 23.476 L 35.425 23.56 L 35.455 23.641 L 35.492 23.72 L 35.536 23.794 L 35.588 23.863 L 35.646 23.927 L 35.71 23.986 L 35.779 24.037 L 35.854 24.082 L 35.932 24.119 L 36.013 24.148 L 36.097 24.169 L 36.183 24.181 L 36.269 24.186 L 36.356 24.181 L 36.441 24.169 L 36.525 24.148 L 36.607 24.119 L 36.685 24.082 L 36.759 24.037 L 36.829 23.986 L 36.893 23.927 L 36.951 23.863 L 37.003 23.794 L 37.047 23.72 L 37.084 23.641 L 37.113 23.56 L 37.134 23.476 L 37.147 23.39 L 37.151 23.304 L 37.151 16.656 L 37.147 16.57 L 37.134 16.484 L 37.113 16.4 L 37.084 16.319 L 37.047 16.24 L 37.003 16.166 L 36.951 16.097 L 36.893 16.033 L 36.829 15.974 L 36.759 15.923 L 36.685 15.878 L 36.607 15.841 L 36.525 15.812 L 36.441 15.791 L 36.356 15.779 L 36.269 15.774 L 36.183 15.779 L 36.097 15.791 L 36.013 15.812 L 35.932 15.841 L 35.854 15.878 L 35.779 15.923 L 35.71 15.974 L 35.646 16.033 L 35.588 16.097 L 35.536 16.166 L 35.492 16.24 L 35.455 16.319 L 35.425 16.4 L 35.404 16.484 L 35.392 16.57 L 35.387 16.656 Z"/>
    <path d="M 38.652 26.064 L 38.656 26.15 L 38.669 26.236 L 38.69 26.32 L 38.719 26.401 L 38.756 26.48 L 38.801 26.554 L 38.852 26.623 L 38.91 26.687 L 38.975 26.746 L 39.044 26.797 L 39.118 26.842 L 39.197 26.879 L 39.278 26.908 L 39.362 26.929 L 39.448 26.941 L 39.534 26.946 L 39.62 26.941 L 39.706 26.929 L 39.79 26.908 L 39.871 26.879 L 39.95 26.842 L 40.024 26.797 L 40.093 26.746 L 40.158 26.687 L 40.216 26.623 L 40.267 26.554 L 40.312 26.48 L 40.349 26.401 L 40.378 26.32 L 40.399 26.236 L 40.412 26.15 L 40.416 26.064 L 40.416 13.896 L 40.412 13.81 L 40.399 13.724 L 40.378 13.64 L 40.349 13.559 L 40.312 13.48 L 40.267 13.406 L 40.216 13.337 L 40.158 13.273 L 40.093 13.214 L 40.024 13.163 L 39.95 13.118 L 39.871 13.081 L 39.79 13.052 L 39.706 13.031 L 39.62 13.019 L 39.534 13.014 L 39.448 13.019 L 39.362 13.031 L 39.278 13.052 L 39.197 13.081 L 39.118 13.118 L 39.044 13.163 L 38.975 13.214 L 38.91 13.273 L 38.852 13.337 L 38.801 13.406 L 38.756 13.48 L 38.719 13.559 L 38.69 13.64 L 38.669 13.724 L 38.656 13.81 L 38.652 13.896 Z"/>
    <path d="M 41.917 26.984 L 41.921 27.07 L 41.934 27.156 L 41.955 27.24 L 41.984 27.321 L 42.021 27.4 L 42.065 27.474 L 42.117 27.543 L 42.175 27.607 L 42.239 27.666 L 42.309 27.717 L 42.383 27.762 L 42.461 27.799 L 42.543 27.828 L 42.627 27.849 L 42.712 27.861 L 42.799 27.866 L 42.885 27.861 L 42.971 27.849 L 43.055 27.828 L 43.136 27.799 L 43.214 27.762 L 43.289 27.717 L 43.358 27.666 L 43.422 27.607 L 43.48 27.543 L 43.532 27.474 L 43.576 27.4 L 43.613 27.321 L 43.643 27.24 L 43.664 27.156 L 43.676 27.07 L 43.681 26.984 L 43.681 12.976 L 43.676 12.89 L 43.664 12.804 L 43.643 12.72 L 43.613 12.639 L 43.576 12.56 L 43.532 12.486 L 43.48 12.417 L 43.422 12.353 L 43.358 12.294 L 43.289 12.243 L 43.214 12.198 L 43.136 12.161 L 43.055 12.132 L 42.971 12.111 L 42.885 12.099 L 42.799 12.094 L 42.712 12.099 L 42.627 12.111 L 42.543 12.132 L 42.461 12.161 L 42.383 12.198 L 42.309 12.243 L 42.239 12.294 L 42.175 12.353 L 42.117 12.417 L 42.065 12.486 L 42.021 12.56 L 41.984 12.639 L 41.955 12.72 L 41.934 12.804 L 41.921 12.89 L 41.917 12.976 Z"/>
    <path d="M 45.184 25.144 L 45.188 25.23 L 45.201 25.316 L 45.222 25.4 L 45.251 25.481 L 45.288 25.56 L 45.333 25.634 L 45.384 25.703 L 45.442 25.767 L 45.507 25.826 L 45.576 25.877 L 45.65 25.922 L 45.729 25.959 L 45.81 25.988 L 45.894 26.009 L 45.98 26.021 L 46.066 26.026 L 46.152 26.021 L 46.238 26.009 L 46.322 25.988 L 46.403 25.959 L 46.482 25.922 L 46.556 25.877 L 46.625 25.826 L 46.69 25.767 L 46.748 25.703 L 46.799 25.634 L 46.844 25.56 L 46.881 25.481 L 46.91 25.4 L 46.931 25.316 L 46.944 25.23 L 46.948 25.144 L 46.948 14.816 L 46.944 14.73 L 46.931 14.644 L 46.91 14.56 L 46.881 14.479 L 46.844 14.4 L 46.799 14.326 L 46.748 14.257 L 46.69 14.193 L 46.625 14.134 L 46.556 14.083 L 46.482 14.038 L 46.403 14.001 L 46.322 13.972 L 46.238 13.951 L 46.152 13.939 L 46.066 13.934 L 45.98 13.939 L 45.894 13.951 L 45.81 13.972 L 45.729 14.001 L 45.65 14.038 L 45.576 14.083 L 45.507 14.134 L 45.442 14.193 L 45.384 14.257 L 45.333 14.326 L 45.288 14.4 L 45.251 14.479 L 45.222 14.56 L 45.201 14.644 L 45.188 14.73 L 45.184 14.816 Z"/>
    <path d="M 48.449 26.984 L 48.453 27.07 L 48.466 27.156 L 48.487 27.24 L 48.516 27.321 L 48.553 27.4 L 48.597 27.474 L 48.649 27.543 L 48.707 27.607 L 48.771 27.666 L 48.841 27.717 L 48.915 27.762 L 48.993 27.799 L 49.075 27.828 L 49.159 27.849 L 49.244 27.861 L 49.331 27.866 L 49.417 27.861 L 49.503 27.849 L 49.587 27.828 L 49.668 27.799 L 49.746 27.762 L 49.821 27.717 L 49.89 27.666 L 49.954 27.607 L 50.012 27.543 L 50.064 27.474 L 50.108 27.4 L 50.145 27.321 L 50.175 27.24 L 50.196 27.156 L 50.208 27.07 L 50.213 26.984 L 50.213 12.976 L 50.208 12.89 L 50.196 12.804 L 50.175 12.72 L 50.145 12.639 L 50.108 12.56 L 50.064 12.486 L 50.012 12.417 L 49.954 12.353 L 49.89 12.294 L 49.821 12.243 L 49.746 12.198 L 49.668 12.161 L 49.587 12.132 L 49.503 12.111 L 49.417 12.099 L 49.331 12.094 L 49.244 12.099 L 49.159 12.111 L 49.075 12.132 L 48.993 12.161 L 48.915 12.198 L 48.841 12.243 L 48.771 12.294 L 48.707 12.353 L 48.649 12.417 L 48.597 12.486 L 48.553 12.56 L 48.516 12.639 L 48.487 12.72 L 48.466 12.804 L 48.453 12.89 L 48.449 12.976 Z"/>
    <path d="M 51.713 20.544 L 51.718 20.63 L 51.73 20.716 L 51.751 20.8 L 51.781 20.881 L 51.818 20.96 L 51.862 21.034 L 51.914 21.103 L 51.972 21.167 L 52.036 21.226 L 52.105 21.277 L 52.18 21.322 L 52.258 21.359 L 52.339 21.388 L 52.423 21.409 L 52.509 21.421 L 52.595 21.426 L 52.682 21.421 L 52.767 21.409 L 52.851 21.388 L 52.933 21.359 L 53.011 21.322 L 53.085 21.277 L 53.155 21.226 L 53.219 21.167 L 53.277 21.103 L 53.329 21.034 L 53.373 20.96 L 53.41 20.881 L 53.439 20.8 L 53.46 20.716 L 53.473 20.63 L 53.477 20.544 L 53.477 19.416 L 53.473 19.33 L 53.46 19.244 L 53.439 19.16 L 53.41 19.079 L 53.373 19 L 53.329 18.926 L 53.277 18.857 L 53.219 18.793 L 53.155 18.734 L 53.085 18.683 L 53.011 18.638 L 52.933 18.601 L 52.851 18.572 L 52.767 18.551 L 52.682 18.539 L 52.595 18.534 L 52.509 18.539 L 52.423 18.551 L 52.339 18.572 L 52.258 18.601 L 52.18 18.638 L 52.105 18.683 L 52.036 18.734 L 51.972 18.793 L 51.914 18.857 L 51.862 18.926 L 51.818 19 L 51.781 19.079 L 51.751 19.16 L 51.73 19.244 L 51.718 19.33 L 51.713 19.416 Z"/>
    <path d="M 54.978 24.224 L 54.982 24.31 L 54.995 24.396 L 55.016 24.48 L 55.045 24.561 L 55.082 24.64 L 55.127 24.714 L 55.178 24.783 L 55.236 24.847 L 55.301 24.906 L 55.37 24.957 L 55.444 25.002 L 55.523 25.039 L 55.604 25.068 L 55.688 25.089 L 55.774 25.101 L 55.86 25.106 L 55.946 25.101 L 56.032 25.089 L 56.116 25.068 L 56.198 25.039 L 56.276 25.002 L 56.35 24.957 L 56.42 24.906 L 56.484 24.847 L 56.542 24.783 L 56.593 24.714 L 56.638 24.64 L 56.675 24.561 L 56.704 24.48 L 56.725 24.396 L 56.738 24.31 L 56.742 24.224 L 56.742 15.736 L 56.738 15.65 L 56.725 15.564 L 56.704 15.48 L 56.675 15.399 L 56.638 15.32 L 56.593 15.246 L 56.542 15.177 L 56.484 15.113 L 56.42 15.054 L 56.35 15.003 L 56.276 14.958 L 56.198 14.921 L 56.116 14.892 L 56.032 14.871 L 55.946 14.859 L 55.86 14.854 L 55.774 14.859 L 55.688 14.871 L 55.604 14.892 L 55.523 14.921 L 55.444 14.958 L 55.37 15.003 L 55.301 15.054 L 55.236 15.113 L 55.178 15.177 L 55.127 15.246 L 55.082 15.32 L 55.045 15.399 L 55.016 15.48 L 54.995 15.564 L 54.982 15.65 L 54.978 15.736 Z"/>
    <path d="M 58.245 26.984 L 58.25 27.07 L 58.262 27.156 L 58.283 27.24 L 58.313 27.321 L 58.35 27.4 L 58.394 27.474 L 58.446 27.543 L 58.504 27.607 L 58.568 27.666 L 58.637 27.717 L 58.712 27.762 L 58.79 27.799 L 58.871 27.828 L 58.955 27.849 L 59.041 27.861 L 59.127 27.866 L 59.214 27.861 L 59.299 27.849 L 59.383 27.828 L 59.465 27.799 L 59.543 27.762 L 59.617 27.717 L 59.687 27.666 L 59.751 27.607 L 59.809 27.543 L 59.861 27.474 L 59.905 27.4 L 59.942 27.321 L 59.971 27.24 L 59.992 27.156 L 60.005 27.07 L 60.009 26.984 L 60.009 12.976 L 60.005 12.89 L 59.992 12.804 L 59.971 12.72 L 59.942 12.639 L 59.905 12.56 L 59.861 12.486 L 59.809 12.417 L 59.751 12.353 L 59.687 12.294 L 59.617 12.243 L 59.543 12.198 L 59.465 12.161 L 59.383 12.132 L 59.299 12.111 L 59.214 12.099 L 59.127 12.094 L 59.041 12.099 L 58.955 12.111 L 58.871 12.132 L 58.79 12.161 L 58.712 12.198 L 58.637 12.243 L 58.568 12.294 L 58.504 12.353 L 58.446 12.417 L 58.394 12.486 L 58.35 12.56 L 58.313 12.639 L 58.283 12.72 L 58.262 12.804 L 58.25 12.89 L 58.245 12.976 Z"/>
    <path d="M 61.51 26.984 L 61.514 27.07 L 61.527 27.156 L 61.548 27.24 L 61.577 27.321 L 61.614 27.4 L 61.659 27.474 L 61.71 27.543 L 61.768 27.607 L 61.833 27.666 L 61.902 27.717 L 61.976 27.762 L 62.055 27.799 L 62.136 27.828 L 62.22 27.849 L 62.306 27.861 L 62.392 27.866 L 62.478 27.861 L 62.564 27.849 L 62.648 27.828 L 62.73 27.799 L 62.808 27.762 L 62.882 27.717 L 62.952 27.666 L 63.016 27.607 L 63.074 27.543 L 63.125 27.474 L 63.17 27.4 L 63.207 27.321 L 63.236 27.24 L 63.257 27.156 L 63.27 27.07 L 63.274 26.984 L 63.274 12.976 L 63.27 12.89 L 63.257 12.804 L 63.236 12.72 L 63.207 12.639 L 63.17 12.56 L 63.125 12.486 L 63.074 12.417 L 63.016 12.353 L 62.952 12.294 L 62.882 12.243 L 62.808 12.198 L 62.73 12.161 L 62.648 12.132 L 62.564 12.111 L 62.478 12.099 L 62.392 12.094 L 62.306 12.099 L 62.22 12.111 L 62.136 12.132 L 62.055 12.161 L 61.976 12.198 L 61.902 12.243 L 61.833 12.294 L 61.768 12.353 L 61.71 12.417 L 61.659 12.486 L 61.614 12.56 L 61.577 12.639 L 61.548 12.72 L 61.527 12.804 L 61.514 12.89 L 61.51 12.976 Z"/>
    <path d="M 64.775 24.224 L 64.779 24.31 L 64.792 24.396 L 64.813 24.48 L 64.842 24.561 L 64.879 24.64 L 64.923 24.714 L 64.975 24.783 L 65.033 24.847 L 65.097 24.906 L 65.167 24.957 L 65.241 25.002 L 65.319 25.039 L 65.401 25.068 L 65.485 25.089 L 65.57 25.101 L 65.657 25.106 L 65.743 25.101 L 65.829 25.089 L 65.913 25.068 L 65.994 25.039 L 66.072 25.002 L 66.147 24.957 L 66.216 24.906 L 66.28 24.847 L 66.338 24.783 L 66.39 24.714 L 66.434 24.64 L 66.471 24.561 L 66.501 24.48 L 66.522 24.396 L 66.534 24.31 L 66.539 24.224 L 66.539 15.736 L 66.534 15.65 L 66.522 15.564 L 66.501 15.48 L 66.471 15.399 L 66.434 15.32 L 66.39 15.246 L 66.338 15.177 L 66.28 15.113 L 66.216 15.054 L 66.147 15.003 L 66.072 14.958 L 65.994 14.921 L 65.913 14.892 L 65.829 14.871 L 65.743 14.859 L 65.657 14.854 L 65.57 14.859 L 65.485 14.871 L 65.401 14.892 L 65.319 14.921 L 65.241 14.958 L 65.167 15.003 L 65.097 15.054 L 65.033 15.113 L 64.975 15.177 L 64.923 15.246 L 64.879 15.32 L 64.842 15.399 L 64.813 15.48 L 64.792 15.564 L 64.779 15.65 L 64.775 15.736 Z"/>
    <path d="M 68.04 23.304 L 68.044 23.39 L 68.056 23.476 L 68.078 23.56 L 68.107 23.641 L 68.144 23.72 L 68.188 23.794 L 68.24 23.863 L 68.298 23.927 L 68.362 23.986 L 68.431 24.037 L 68.506 24.082 L 68.584 24.119 L 68.665 24.148 L 68.749 24.169 L 68.835 24.181 L 68.921 24.186 L 69.008 24.181 L 69.093 24.169 L 69.177 24.148 L 69.259 24.119 L 69.337 24.082 L 69.411 24.037 L 69.481 23.986 L 69.545 23.927 L 69.603 23.863 L 69.655 23.794 L 69.699 23.72 L 69.736 23.641 L 69.765 23.56 L 69.786 23.476 L 69.799 23.39 L 69.803 23.304 L 69.803 16.656 L 69.799 16.57 L 69.786 16.484 L 69.765 16.4 L 69.736 16.319 L 69.699 16.24 L 69.655 16.166 L 69.603 16.097 L 69.545 16.033 L 69.481 15.974 L 69.411 15.923 L 69.337 15.878 L 69.259 15.841 L 69.177 15.812 L 69.093 15.791 L 69.008 15.779 L 68.921 15.774 L 68.835 15.779 L 68.749 15.791 L 68.665 15.812 L 68.584 15.841 L 68.506 15.878 L 68.431 15.923 L 68.362 15.974 L 68.298 16.033 L 68.24 16.097 L 68.188 16.166 L 68.144 16.24 L 68.107 16.319 L 68.078 16.4 L 68.056 16.484 L 68.044 16.57 L 68.04 16.656 Z"/>
    <path d="M 71.304 24.224 L 71.308 24.31 L 71.321 24.396 L 71.342 24.48 L 71.371 24.561 L 71.408 24.64 L 71.453 24.714 L 71.504 24.783 L 71.563 24.847 L 71.627 24.906 L 71.696 24.957 L 71.77 25.002 L 71.849 25.039 L 71.93 25.068 L 72.014 25.089 L 72.1 25.101 L 72.186 25.106 L 72.273 25.101 L 72.358 25.089 L 72.442 25.068 L 72.524 25.039 L 72.602 25.002 L 72.676 24.957 L 72.746 24.906 L 72.81 24.847 L 72.868 24.783 L 72.919 24.714 L 72.964 24.64 L 73.001 24.561 L 73.03 24.48 L 73.051 24.396 L 73.064 24.31 L 73.068 24.224 L 73.068 15.736 L 73.064 15.65 L 73.051 15.564 L 73.03 15.48 L 73.001 15.399 L 72.964 15.32 L 72.919 15.246 L 72.868 15.177 L 72.81 15.113 L 72.746 15.054 L 72.676 15.003 L 72.602 14.958 L 72.524 14.921 L 72.442 14.892 L 72.358 14.871 L 72.273 14.859 L 72.186 14.854 L 72.1 14.859 L 72.014 14.871 L 71.93 14.892 L 71.849 14.921 L 71.77 14.958 L 71.696 15.003 L 71.627 15.054 L 71.563 15.113 L 71.504 15.177 L 71.453 15.246 L 71.408 15.32 L 71.371 15.399 L 71.342 15.48 L 71.321 15.564 L 71.308 15.65 L 71.304 15.736 Z"/>
    <path d="M 74.572 21.464 L 74.576 21.55 L 74.588 21.636 L 74.61 21.72 L 74.639 21.801 L 74.676 21.88 L 74.72 21.954 L 74.772 22.023 L 74.83 22.087 L 74.894 22.146 L 74.963 22.197 L 75.038 22.242 L 75.116 22.279 L 75.197 22.308 L 75.281 22.329 L 75.367 22.341 L 75.453 22.346 L 75.54 22.341 L 75.625 22.329 L 75.709 22.308 L 75.791 22.279 L 75.869 22.242 L 75.943 22.197 L 76.013 22.146 L 76.077 22.087 L 76.135 22.023 L 76.187 21.954 L 76.231 21.88 L 76.268 21.801 L 76.297 21.72 L 76.318 21.636 L 76.331 21.55 L 76.335 21.464 L 76.335 18.496 L 76.331 18.41 L 76.318 18.324 L 76.297 18.24 L 76.268 18.159 L 76.231 18.08 L 76.187 18.006 L 76.135 17.937 L 76.077 17.873 L 76.013 17.814 L 75.943 17.763 L 75.869 17.718 L 75.791 17.681 L 75.709 17.652 L 75.625 17.631 L 75.54 17.619 L 75.453 17.614 L 75.367 17.619 L 75.281 17.631 L 75.197 17.652 L 75.116 17.681 L 75.038 17.718 L 74.963 17.763 L 74.894 17.814 L 74.83 17.873 L 74.772 17.937 L 74.72 18.006 L 74.676 18.08 L 74.639 18.159 L 74.61 18.24 L 74.588 18.324 L 74.576 18.41 L 74.572 18.496 Z"/>
    <path d="M 77.836 20.544 L 77.84 20.63 L 77.853 20.716 L 77.874 20.8 L 77.903 20.881 L 77.94 20.96 L 77.985 21.034 L 78.036 21.103 L 78.095 21.167 L 78.159 21.226 L 78.228 21.277 L 78.302 21.322 L 78.381 21.359 L 78.462 21.388 L 78.546 21.409 L 78.632 21.421 L 78.718 21.426 L 78.805 21.421 L 78.89 21.409 L 78.974 21.388 L 79.056 21.359 L 79.134 21.322 L 79.208 21.277 L 79.278 21.226 L 79.342 21.167 L 79.4 21.103 L 79.451 21.034 L 79.496 20.96 L 79.533 20.881 L 79.562 20.8 L 79.583 20.716 L 79.596 20.63 L 79.6 20.544 L 79.6 19.416 L 79.596 19.33 L 79.583 19.244 L 79.562 19.16 L 79.533 19.079 L 79.496 19 L 79.451 18.926 L 79.4 18.857 L 79.342 18.793 L 79.278 18.734 L 79.208 18.683 L 79.134 18.638 L 79.056 18.601 L 78.974 18.572 L 78.89 18.551 L 78.805 18.539 L 78.718 18.534 L 78.632 18.539 L 78.546 18.551 L 78.462 18.572 L 78.381 18.601 L 78.302 18.638 L 78.228 18.683 L 78.159 18.734 L 78.095 18.793 L 78.036 18.857 L 77.985 18.926 L 77.94 19 L 77.903 19.079 L 77.874 19.16 L 77.853 19.244 L 77.84 19.33 L 77.836 19.416 Z"/>
    <path d="M 15.828 40.5 L 18.252 40.5 L 18.252 40.197 L 18.555 40.197 L 18.555 39.894 L 18.858 39.894 L 18.858 38.682 L 18.252 38.682 L 18.252 38.076 L 16.434 38.076 L 16.434 37.166 L 16.737 37.166 L 16.737 36.863 L 18.858 36.863 L 18.858 36.257 L 16.434 36.257 L 16.434 36.863 L 15.828 36.863 L 15.828 38.076 L 16.131 38.076 L 16.131 38.379 L 16.434 38.379 L 16.434 38.682 L 17.949 38.682 L 17.949 38.985 L 18.252 38.985 L 18.252 39.894 L 15.828 39.894 Z"/>
    <path d="M 20.07 40.5 L 20.677 40.5 L 20.677 40.197 L 21.283 40.197 L 21.283 40.5 L 21.889 40.5 L 21.889 40.197 L 22.192 40.197 L 22.192 39.894 L 22.495 39.894 L 22.495 37.469 L 21.889 37.469 L 21.889 39.894 L 21.283 39.894 L 21.283 38.682 L 20.677 38.682 L 20.677 39.894 L 20.07 39.894 L 20.07 37.469 L 19.464 37.469 L 19.464 39.894 L 19.767 39.894 L 19.767 40.197 L 20.07 40.197 Z"/>
    <path d="M 23.707 40.5 L 25.526 40.5 L 25.526 39.894 L 23.707 39.894 L 23.707 39.288 L 26.132 39.288 L 26.132 38.076 L 25.526 38.076 L 25.526 37.469 L 23.707 37.469 L 23.707 38.076 L 23.101 38.076 L 23.101 39.894 L 23.404 39.894 L 23.404 40.197 L 23.707 40.197 Z M 23.707 38.682 L 23.707 38.379 L 24.01 38.379 L 24.01 38.076 L 25.222 38.076 L 25.222 38.379 L 25.526 38.379 L 25.526 38.682 Z"/>
    <path d="M 27.344 40.5 L 29.768 40.5 L 29.768 38.076 L 29.162 38.076 L 29.162 37.469 L 27.344 37.469 L 27.344 38.076 L 28.859 38.076 L 28.859 38.379 L 29.162 38.379 L 29.162 38.682 L 27.344 38.682 L 27.344 39.288 L 26.738 39.288 L 26.738 39.894 L 27.041 39.894 L 27.041 40.197 L 27.344 40.197 Z M 27.344 39.894 L 27.344 39.591 L 27.647 39.591 L 27.647 39.288 L 29.162 39.288 L 29.162 39.894 Z"/>
    <path d="M 31.587 40.5 L 32.799 40.5 L 32.799 40.197 L 33.102 40.197 L 33.102 39.894 L 33.405 39.894 L 33.405 39.288 L 32.799 39.288 L 32.799 39.894 L 31.587 39.894 L 31.587 38.076 L 32.193 38.076 L 32.193 37.469 L 31.587 37.469 L 31.587 36.257 L 30.981 36.257 L 30.981 37.469 L 30.374 37.469 L 30.374 38.076 L 30.981 38.076 L 30.981 39.894 L 31.284 39.894 L 31.284 40.197 L 31.587 40.197 Z"/>
    <path d="M 34.617 40.5 L 36.436 40.5 L 36.436 39.894 L 34.617 39.894 L 34.617 39.288 L 37.042 39.288 L 37.042 38.076 L 36.436 38.076 L 36.436 37.469 L 34.617 37.469 L 34.617 38.076 L 34.011 38.076 L 34.011 39.894 L 34.314 39.894 L 34.314 40.197 L 34.617 40.197 Z M 34.617 38.682 L 34.617 38.379 L 34.92 38.379 L 34.92 38.076 L 36.133 38.076 L 36.133 38.379 L 36.436 38.379 L 36.436 38.682 Z"/>
    <path d="M 37.648 40.5 L 38.254 40.5 L 38.254 38.682 L 38.86 38.682 L 38.86 38.379 L 39.163 38.379 L 39.163 38.076 L 39.769 38.076 L 39.769 38.379 L 40.072 38.379 L 40.072 38.682 L 40.679 38.682 L 40.679 38.076 L 40.072 38.076 L 40.072 37.469 L 38.86 37.469 L 38.86 38.076 L 38.254 38.076 L 38.254 37.469 L 37.648 37.469 Z"/>
    <path d="M 44.921 40.5 L 45.528 40.5 L 45.528 39.894 L 46.134 39.894 L 46.134 39.591 L 46.74 39.591 L 46.74 39.894 L 47.346 39.894 L 47.346 40.5 L 47.952 40.5 L 47.952 36.257 L 47.346 36.257 L 47.346 39.288 L 46.74 39.288 L 46.74 38.076 L 46.134 38.076 L 46.134 39.288 L 45.528 39.288 L 45.528 36.257 L 44.921 36.257 Z"/>
    <path d="M 49.164 40.5 L 50.983 40.5 L 50.983 39.894 L 49.164 39.894 L 49.164 39.288 L 51.589 39.288 L 51.589 38.076 L 50.983 38.076 L 50.983 37.469 L 49.164 37.469 L 49.164 38.076 L 48.558 38.076 L 48.558 39.894 L 48.861 39.894 L 48.861 40.197 L 49.164 40.197 Z M 49.164 38.682 L 49.164 38.379 L 49.467 38.379 L 49.467 38.076 L 50.68 38.076 L 50.68 38.379 L 50.983 38.379 L 50.983 38.682 Z"/>
    <path d="M 52.801 40.5 L 55.226 40.5 L 55.226 38.076 L 54.619 38.076 L 54.619 37.469 L 52.801 37.469 L 52.801 38.076 L 54.316 38.076 L 54.316 38.379 L 54.619 38.379 L 54.619 38.682 L 52.801 38.682 L 52.801 39.288 L 52.195 39.288 L 52.195 39.894 L 52.498 39.894 L 52.498 40.197 L 52.801 40.197 Z M 52.801 39.894 L 52.801 39.591 L 53.104 39.591 L 53.104 39.288 L 54.619 39.288 L 54.619 39.894 Z"/>
    <path d="M 57.044 40.5 L 58.256 40.5 L 58.256 40.197 L 58.559 40.197 L 58.559 39.894 L 58.862 39.894 L 58.862 39.288 L 58.256 39.288 L 58.256 39.894 L 57.044 39.894 L 57.044 38.076 L 57.65 38.076 L 57.65 37.469 L 57.044 37.469 L 57.044 36.257 L 56.438 36.257 L 56.438 37.469 L 55.832 37.469 L 55.832 38.076 L 56.438 38.076 L 56.438 39.894 L 56.741 39.894 L 56.741 40.197 L 57.044 40.197 Z"/>
    <path d="M 59.468 40.5 L 60.074 40.5 L 60.074 38.076 L 61.59 38.076 L 61.59 38.379 L 61.893 38.379 L 61.893 40.5 L 62.499 40.5 L 62.499 38.076 L 61.893 38.076 L 61.893 37.469 L 60.074 37.469 L 60.074 36.257 L 59.468 36.257 Z"/>
    <path d="M 63.711 40.5 L 65.53 40.5 L 65.53 39.894 L 63.711 39.894 L 63.711 39.288 L 66.136 39.288 L 66.136 38.076 L 65.53 38.076 L 65.53 37.469 L 63.711 37.469 L 63.711 38.076 L 63.105 38.076 L 63.105 39.894 L 63.408 39.894 L 63.408 40.197 L 63.711 40.197 Z M 63.711 38.682 L 63.711 38.379 L 64.014 38.379 L 64.014 38.076 L 65.227 38.076 L 65.227 38.379 L 65.53 38.379 L 65.53 38.682 Z"/>
    <path d="M 66.742 40.5 L 67.348 40.5 L 67.348 38.682 L 67.954 38.682 L 67.954 38.379 L 68.257 38.379 L 68.257 38.076 L 68.863 38.076 L 68.863 38.379 L 69.166 38.379 L 69.166 38.682 L 69.772 38.682 L 69.772 38.076 L 69.166 38.076 L 69.166 37.469 L 67.954 37.469 L 67.954 38.076 L 67.348 38.076 L 67.348 37.469 L 66.742 37.469 Z"/>
    <path d="M 13.403 46.44 L 14.009 46.44 L 14.009 42.803 L 15.221 42.803 L 15.221 42.197 L 12.191 42.197 L 12.191 42.803 L 13.403 42.803 Z"/>
    <path d="M 15.828 46.44 L 16.434 46.44 L 16.434 44.016 L 17.949 44.016 L 17.949 44.319 L 18.252 44.319 L 18.252 46.44 L 18.858 46.44 L 18.858 44.016 L 18.252 44.016 L 18.252 43.409 L 16.434 43.409 L 16.434 42.197 L 15.828 42.197 Z"/>
    <path d="M 20.07 46.44 L 21.889 46.44 L 21.889 45.834 L 20.07 45.834 L 20.07 45.228 L 22.495 45.228 L 22.495 44.016 L 21.889 44.016 L 21.889 43.409 L 20.07 43.409 L 20.07 44.016 L 19.464 44.016 L 19.464 45.834 L 19.767 45.834 L 19.767 46.137 L 20.07 46.137 Z M 20.07 44.622 L 20.07 44.319 L 20.373 44.319 L 20.373 44.016 L 21.586 44.016 L 21.586 44.319 L 21.889 44.319 L 21.889 44.622 Z"/>
    <path d="M 26.738 46.44 L 27.344 46.44 L 27.344 43.409 L 27.647 43.409 L 27.647 43.712 L 27.95 43.712 L 27.95 44.016 L 28.253 44.016 L 28.253 44.319 L 28.556 44.319 L 28.556 44.622 L 29.162 44.622 L 29.162 46.44 L 29.768 46.44 L 29.768 42.197 L 29.162 42.197 L 29.162 44.016 L 28.556 44.016 L 28.556 43.409 L 27.95 43.409 L 27.95 42.803 L 27.344 42.803 L 27.344 42.197 L 26.738 42.197 Z"/>
    <path d="M 30.981 46.44 L 32.799 46.44 L 32.799 45.834 L 30.981 45.834 L 30.981 45.228 L 33.405 45.228 L 33.405 44.016 L 32.799 44.016 L 32.799 43.409 L 30.981 43.409 L 30.981 44.016 L 30.374 44.016 L 30.374 45.834 L 30.678 45.834 L 30.678 46.137 L 30.981 46.137 Z M 30.981 44.622 L 30.981 44.319 L 31.284 44.319 L 31.284 44.016 L 32.496 44.016 L 32.496 44.319 L 32.799 44.319 L 32.799 44.622 Z"/>
    <path d="M 34.617 46.44 L 36.436 46.44 L 36.436 45.834 L 35.83 45.834 L 35.83 43.409 L 34.617 43.409 L 34.617 44.016 L 35.223 44.016 L 35.223 45.834 L 34.617 45.834 Z"/>
    <path d="M 38.254 46.44 L 40.072 46.44 L 40.072 46.137 L 40.376 46.137 L 40.376 45.834 L 40.679 45.834 L 40.679 42.803 L 38.254 42.803 L 38.254 43.409 L 37.648 43.409 L 37.648 44.622 L 37.951 44.622 L 37.951 44.925 L 38.254 44.925 L 38.254 45.228 L 40.072 45.228 L 40.072 45.834 L 38.254 45.834 Z M 38.254 44.622 L 38.254 43.712 L 38.557 43.712 L 38.557 43.409 L 40.072 43.409 L 40.072 44.622 Z"/>
    <path d="M 41.285 46.44 L 41.891 46.44 L 41.891 44.016 L 43.406 44.016 L 43.406 44.319 L 43.709 44.319 L 43.709 46.44 L 44.315 46.44 L 44.315 44.016 L 43.709 44.016 L 43.709 43.409 L 41.891 43.409 L 41.891 42.197 L 41.285 42.197 Z"/>
    <path d="M 44.921 46.44 L 47.346 46.44 L 47.346 46.137 L 47.649 46.137 L 47.649 45.834 L 47.952 45.834 L 47.952 44.016 L 47.346 44.016 L 47.346 43.409 L 45.528 43.409 L 45.528 42.197 L 44.921 42.197 Z M 45.528 45.834 L 45.528 44.016 L 47.043 44.016 L 47.043 44.319 L 47.346 44.319 L 47.346 45.834 Z"/>
    <path d="M 49.164 46.44 L 50.983 46.44 L 50.983 46.137 L 51.286 46.137 L 51.286 45.834 L 51.589 45.834 L 51.589 44.016 L 50.983 44.016 L 50.983 43.409 L 49.164 43.409 L 49.164 44.016 L 48.558 44.016 L 48.558 45.834 L 48.861 45.834 L 48.861 46.137 L 49.164 46.137 Z M 49.164 45.834 L 49.164 44.319 L 49.467 44.319 L 49.467 44.016 L 50.68 44.016 L 50.68 44.319 L 50.983 44.319 L 50.983 45.834 Z"/>
    <path d="M 52.801 46.44 L 55.226 46.44 L 55.226 43.409 L 54.619 43.409 L 54.619 45.834 L 52.801 45.834 L 52.801 43.409 L 52.195 43.409 L 52.195 45.834 L 52.498 45.834 L 52.498 46.137 L 52.801 46.137 Z"/>
    <path d="M 55.832 46.44 L 56.438 46.44 L 56.438 44.622 L 57.044 44.622 L 57.044 44.319 L 57.347 44.319 L 57.347 44.016 L 57.953 44.016 L 57.953 44.319 L 58.256 44.319 L 58.256 44.622 L 58.862 44.622 L 58.862 44.016 L 58.256 44.016 L 58.256 43.409 L 57.044 43.409 L 57.044 44.016 L 56.438 44.016 L 56.438 43.409 L 55.832 43.409 Z"/>
    <path d="M 59.468 46.44 L 60.074 46.44 L 60.074 44.016 L 61.59 44.016 L 61.59 44.319 L 61.893 44.319 L 61.893 46.44 L 62.499 46.44 L 62.499 44.016 L 61.893 44.016 L 61.893 43.409 L 60.074 43.409 L 60.074 42.197 L 59.468 42.197 Z"/>
    <path d="M 63.711 46.44 L 65.53 46.44 L 65.53 46.137 L 65.833 46.137 L 65.833 45.834 L 66.136 45.834 L 66.136 44.016 L 65.53 44.016 L 65.53 43.409 L 63.711 43.409 L 63.711 44.016 L 63.105 44.016 L 63.105 45.834 L 63.408 45.834 L 63.408 46.137 L 63.711 46.137 Z M 63.711 45.834 L 63.711 44.319 L 64.014 44.319 L 64.014 44.016 L 65.227 44.016 L 65.227 44.319 L 65.53 44.319 L 65.53 45.834 Z"/>
    <path d="M 67.348 46.44 L 69.166 46.44 L 69.166 46.137 L 69.469 46.137 L 69.469 45.834 L 69.772 45.834 L 69.772 44.016 L 69.166 44.016 L 69.166 43.409 L 67.348 43.409 L 67.348 44.016 L 66.742 44.016 L 66.742 45.834 L 67.045 45.834 L 67.045 46.137 L 67.348 46.137 Z M 67.348 45.834 L 67.348 44.319 L 67.651 44.319 L 67.651 44.016 L 68.863 44.016 L 68.863 44.319 L 69.166 44.319 L 69.166 45.834 Z"/>
    <path d="M 70.985 46.44 L 73.409 46.44 L 73.409 42.197 L 72.803 42.197 L 72.803 43.409 L 70.985 43.409 L 70.985 44.016 L 70.379 44.016 L 70.379 45.834 L 70.682 45.834 L 70.682 46.137 L 70.985 46.137 Z M 70.985 45.834 L 70.985 44.319 L 71.288 44.319 L 71.288 44.016 L 72.803 44.016 L 72.803 45.834 Z"/>
    <path d="M 35.223 42.803 L 35.83 42.803 L 35.83 42.197 L 35.223 42.197 Z"/>
  </g>
  <g fill="#eef1f4">
    <path d="M 6 20.544 L 6.004 20.63 L 6.017 20.716 L 6.038 20.8 L 6.067 20.881 L 6.104 20.96 L 6.149 21.034 L 6.2 21.103 L 6.258 21.167 L 6.322 21.226 L 6.392 21.277 L 6.466 21.322 L 6.544 21.359 L 6.626 21.388 L 6.71 21.409 L 6.795 21.421 L 6.882 21.426 L 6.968 21.421 L 7.054 21.409 L 7.138 21.388 L 7.219 21.359 L 7.298 21.322 L 7.372 21.277 L 7.441 21.226 L 7.505 21.167 L 7.564 21.103 L 7.615 21.034 L 7.66 20.96 L 7.697 20.881 L 7.726 20.8 L 7.747 20.716 L 7.76 20.63 L 7.764 20.544 L 7.764 19.416 L 7.76 19.33 L 7.747 19.244 L 7.726 19.16 L 7.697 19.079 L 7.66 19 L 7.615 18.926 L 7.564 18.857 L 7.505 18.793 L 7.441 18.734 L 7.372 18.683 L 7.298 18.638 L 7.219 18.601 L 7.138 18.572 L 7.054 18.551 L 6.968 18.539 L 6.882 18.534 L 6.795 18.539 L 6.71 18.551 L 6.626 18.572 L 6.544 18.601 L 6.466 18.638 L 6.392 18.683 L 6.322 18.734 L 6.258 18.793 L 6.2 18.857 L 6.149 18.926 L 6.104 19 L 6.067 19.079 L 6.038 19.16 L 6.017 19.244 L 6.004 19.33 L 6 19.416 Z"/>
    <path d="M 9.265 22.384 L 9.269 22.47 L 9.282 22.556 L 9.303 22.64 L 9.332 22.721 L 9.369 22.8 L 9.413 22.874 L 9.465 22.943 L 9.523 23.007 L 9.587 23.066 L 9.657 23.117 L 9.731 23.162 L 9.809 23.199 L 9.891 23.228 L 9.975 23.249 L 10.06 23.261 L 10.147 23.266 L 10.233 23.261 L 10.319 23.249 L 10.403 23.228 L 10.484 23.199 L 10.562 23.162 L 10.637 23.117 L 10.706 23.066 L 10.77 23.007 L 10.828 22.943 L 10.88 22.874 L 10.924 22.8 L 10.961 22.721 L 10.99 22.64 L 11.012 22.556 L 11.024 22.47 L 11.028 22.384 L 11.028 17.576 L 11.024 17.49 L 11.012 17.404 L 10.99 17.32 L 10.961 17.239 L 10.924 17.16 L 10.88 17.086 L 10.828 17.017 L 10.77 16.953 L 10.706 16.894 L 10.637 16.843 L 10.562 16.798 L 10.484 16.761 L 10.403 16.732 L 10.319 16.711 L 10.233 16.699 L 10.147 16.694 L 10.06 16.699 L 9.975 16.711 L 9.891 16.732 L 9.809 16.761 L 9.731 16.798 L 9.657 16.843 L 9.587 16.894 L 9.523 16.953 L 9.465 17.017 L 9.413 17.086 L 9.369 17.16 L 9.332 17.239 L 9.303 17.32 L 9.282 17.404 L 9.269 17.49 L 9.265 17.576 Z"/>
    <path d="M 12.529 22.384 L 12.534 22.47 L 12.546 22.556 L 12.567 22.64 L 12.597 22.721 L 12.634 22.8 L 12.678 22.874 L 12.73 22.943 L 12.788 23.007 L 12.852 23.066 L 12.921 23.117 L 12.996 23.162 L 13.074 23.199 L 13.155 23.228 L 13.239 23.249 L 13.325 23.261 L 13.411 23.266 L 13.498 23.261 L 13.583 23.249 L 13.667 23.228 L 13.749 23.199 L 13.827 23.162 L 13.901 23.117 L 13.971 23.066 L 14.035 23.007 L 14.093 22.943 L 14.145 22.874 L 14.189 22.8 L 14.226 22.721 L 14.255 22.64 L 14.276 22.556 L 14.289 22.47 L 14.293 22.384 L 14.293 17.576 L 14.289 17.49 L 14.276 17.404 L 14.255 17.32 L 14.226 17.239 L 14.189 17.16 L 14.145 17.086 L 14.093 17.017 L 14.035 16.953 L 13.971 16.894 L 13.901 16.843 L 13.827 16.798 L 13.749 16.761 L 13.667 16.732 L 13.583 16.711 L 13.498 16.699 L 13.411 16.694 L 13.325 16.699 L 13.239 16.711 L 13.155 16.732 L 13.074 16.761 L 12.996 16.798 L 12.921 16.843 L 12.852 16.894 L 12.788 16.953 L 12.73 17.017 L 12.678 17.086 L 12.634 17.16 L 12.597 17.239 L 12.567 17.32 L 12.546 17.404 L 12.534 17.49 L 12.529 17.576 Z"/>
    <path d="M 15.797 22.384 L 15.801 22.47 L 15.814 22.556 L 15.835 22.64 L 15.864 22.721 L 15.901 22.8 L 15.945 22.874 L 15.997 22.943 L 16.055 23.007 L 16.119 23.066 L 16.189 23.117 L 16.263 23.162 L 16.341 23.199 L 16.423 23.228 L 16.507 23.249 L 16.592 23.261 L 16.679 23.266 L 16.765 23.261 L 16.851 23.249 L 16.935 23.228 L 17.016 23.199 L 17.094 23.162 L 17.169 23.117 L 17.238 23.066 L 17.302 23.007 L 17.36 22.943 L 17.412 22.874 L 17.456 22.8 L 17.493 22.721 L 17.522 22.64 L 17.544 22.556 L 17.556 22.47 L 17.56 22.384 L 17.56 17.576 L 17.556 17.49 L 17.544 17.404 L 17.522 17.32 L 17.493 17.239 L 17.456 17.16 L 17.412 17.086 L 17.36 17.017 L 17.302 16.953 L 17.238 16.894 L 17.169 16.843 L 17.094 16.798 L 17.016 16.761 L 16.935 16.732 L 16.851 16.711 L 16.765 16.699 L 16.679 16.694 L 16.592 16.699 L 16.507 16.711 L 16.423 16.732 L 16.341 16.761 L 16.263 16.798 L 16.189 16.843 L 16.119 16.894 L 16.055 16.953 L 15.997 17.017 L 15.945 17.086 L 15.901 17.16 L 15.864 17.239 L 15.835 17.32 L 15.814 17.404 L 15.801 17.49 L 15.797 17.576 Z"/>
    <path d="M 19.061 20.544 L 19.066 20.63 L 19.078 20.716 L 19.099 20.8 L 19.129 20.881 L 19.166 20.96 L 19.21 21.034 L 19.262 21.103 L 19.32 21.167 L 19.384 21.226 L 19.453 21.277 L 19.528 21.322 L 19.606 21.359 L 19.687 21.388 L 19.771 21.409 L 19.857 21.421 L 19.943 21.426 L 20.03 21.421 L 20.115 21.409 L 20.199 21.388 L 20.281 21.359 L 20.359 21.322 L 20.433 21.277 L 20.503 21.226 L 20.567 21.167 L 20.625 21.103 L 20.677 21.034 L 20.721 20.96 L 20.758 20.881 L 20.787 20.8 L 20.808 20.716 L 20.821 20.63 L 20.825 20.544 L 20.825 19.416 L 20.821 19.33 L 20.808 19.244 L 20.787 19.16 L 20.758 19.079 L 20.721 19 L 20.677 18.926 L 20.625 18.857 L 20.567 18.793 L 20.503 18.734 L 20.433 18.683 L 20.359 18.638 L 20.281 18.601 L 20.199 18.572 L 20.115 18.551 L 20.03 18.539 L 19.943 18.534 L 19.857 18.539 L 19.771 18.551 L 19.687 18.572 L 19.606 18.601 L 19.528 18.638 L 19.453 18.683 L 19.384 18.734 L 19.32 18.793 L 19.262 18.857 L 19.21 18.926 L 19.166 19 L 19.129 19.079 L 19.099 19.16 L 19.078 19.244 L 19.066 19.33 L 19.061 19.416 Z"/>
    <path d="M 22.326 24.224 L 22.33 24.31 L 22.343 24.396 L 22.364 24.48 L 22.393 24.561 L 22.43 24.64 L 22.475 24.714 L 22.526 24.783 L 22.584 24.847 L 22.648 24.906 L 22.718 24.957 L 22.792 25.002 L 22.87 25.039 L 22.952 25.068 L 23.036 25.089 L 23.122 25.101 L 23.208 25.106 L 23.294 25.101 L 23.38 25.089 L 23.464 25.068 L 23.545 25.039 L 23.624 25.002 L 23.698 24.957 L 23.767 24.906 L 23.832 24.847 L 23.89 24.783 L 23.941 24.714 L 23.986 24.64 L 24.023 24.561 L 24.052 24.48 L 24.073 24.396 L 24.086 24.31 L 24.09 24.224 L 24.09 15.736 L 24.086 15.65 L 24.073 15.564 L 24.052 15.48 L 24.023 15.399 L 23.986 15.32 L 23.941 15.246 L 23.89 15.177 L 23.832 15.113 L 23.767 15.054 L 23.698 15.003 L 23.624 14.958 L 23.545 14.921 L 23.464 14.892 L 23.38 14.871 L 23.294 14.859 L 23.208 14.854 L 23.122 14.859 L 23.036 14.871 L 22.952 14.892 L 22.87 14.921 L 22.792 14.958 L 22.718 15.003 L 22.648 15.054 L 22.584 15.113 L 22.526 15.177 L 22.475 15.246 L 22.43 15.32 L 22.393 15.399 L 22.364 15.48 L 22.343 15.564 L 22.33 15.65 L 22.326 15.736 Z"/>
    <path d="M 25.591 23.304 L 25.595 23.39 L 25.608 23.476 L 25.629 23.56 L 25.658 23.641 L 25.695 23.72 L 25.739 23.794 L 25.791 23.863 L 25.849 23.927 L 25.913 23.986 L 25.983 24.037 L 26.057 24.082 L 26.135 24.119 L 26.217 24.148 L 26.301 24.169 L 26.386 24.181 L 26.473 24.186 L 26.559 24.181 L 26.645 24.169 L 26.729 24.148 L 26.81 24.119 L 26.888 24.082 L 26.963 24.037 L 27.032 23.986 L 27.096 23.927 L 27.154 23.863 L 27.206 23.794 L 27.25 23.72 L 27.287 23.641 L 27.317 23.56 L 27.338 23.476 L 27.35 23.39 L 27.355 23.304 L 27.355 16.656 L 27.35 16.57 L 27.338 16.484 L 27.317 16.4 L 27.287 16.319 L 27.25 16.24 L 27.206 16.166 L 27.154 16.097 L 27.096 16.033 L 27.032 15.974 L 26.963 15.923 L 26.888 15.878 L 26.81 15.841 L 26.729 15.812 L 26.645 15.791 L 26.559 15.779 L 26.473 15.774 L 26.386 15.779 L 26.301 15.791 L 26.217 15.812 L 26.135 15.841 L 26.057 15.878 L 25.983 15.923 L 25.913 15.974 L 25.849 16.033 L 25.791 16.097 L 25.739 16.166 L 25.695 16.24 L 25.658 16.319 L 25.629 16.4 L 25.608 16.484 L 25.595 16.57 L 25.591 16.656 Z"/>
    <path d="M 28.858 24.224 L 28.862 24.31 L 28.875 24.396 L 28.896 24.48 L 28.925 24.561 L 28.962 24.64 L 29.007 24.714 L 29.058 24.783 L 29.116 24.847 L 29.18 24.906 L 29.25 24.957 L 29.324 25.002 L 29.402 25.039 L 29.484 25.068 L 29.568 25.089 L 29.654 25.101 L 29.74 25.106 L 29.826 25.101 L 29.912 25.089 L 29.996 25.068 L 30.077 25.039 L 30.156 25.002 L 30.23 24.957 L 30.299 24.906 L 30.364 24.847 L 30.422 24.783 L 30.473 24.714 L 30.518 24.64 L 30.555 24.561 L 30.584 24.48 L 30.605 24.396 L 30.618 24.31 L 30.622 24.224 L 30.622 15.736 L 30.618 15.65 L 30.605 15.564 L 30.584 15.48 L 30.555 15.399 L 30.518 15.32 L 30.473 15.246 L 30.422 15.177 L 30.364 15.113 L 30.299 15.054 L 30.23 15.003 L 30.156 14.958 L 30.077 14.921 L 29.996 14.892 L 29.912 14.871 L 29.826 14.859 L 29.74 14.854 L 29.654 14.859 L 29.568 14.871 L 29.484 14.892 L 29.402 14.921 L 29.324 14.958 L 29.25 15.003 L 29.18 15.054 L 29.116 15.113 L 29.058 15.177 L 29.007 15.246 L 28.962 15.32 L 28.925 15.399 L 28.896 15.48 L 28.875 15.564 L 28.862 15.65 L 28.858 15.736 Z"/>
    <path d="M 32.123 25.144 L 32.127 25.23 L 32.14 25.316 L 32.161 25.4 L 32.19 25.481 L 32.227 25.56 L 32.271 25.634 L 32.323 25.703 L 32.381 25.767 L 32.445 25.826 L 32.515 25.877 L 32.589 25.922 L 32.667 25.959 L 32.749 25.988 L 32.833 26.009 L 32.918 26.021 L 33.005 26.026 L 33.091 26.021 L 33.177 26.009 L 33.261 25.988 L 33.342 25.959 L 33.42 25.922 L 33.495 25.877 L 33.564 25.826 L 33.628 25.767 L 33.686 25.703 L 33.738 25.634 L 33.782 25.56 L 33.819 25.481 L 33.849 25.4 L 33.87 25.316 L 33.882 25.23 L 33.887 25.144 L 33.887 14.816 L 33.882 14.73 L 33.87 14.644 L 33.849 14.56 L 33.819 14.479 L 33.782 14.4 L 33.738 14.326 L 33.686 14.257 L 33.628 14.193 L 33.564 14.134 L 33.495 14.083 L 33.42 14.038 L 33.342 14.001 L 33.261 13.972 L 33.177 13.951 L 33.091 13.939 L 33.005 13.934 L 32.918 13.939 L 32.833 13.951 L 32.749 13.972 L 32.667 14.001 L 32.589 14.038 L 32.515 14.083 L 32.445 14.134 L 32.381 14.193 L 32.323 14.257 L 32.271 14.326 L 32.227 14.4 L 32.19 14.479 L 32.161 14.56 L 32.14 14.644 L 32.127 14.73 L 32.123 14.816 Z"/>
    <path d="M 35.387 23.304 L 35.392 23.39 L 35.404 23.476 L 35.425 23.56 L 35.455 23.641 L 35.492 23.72 L 35.536 23.794 L 35.588 23.863 L 35.646 23.927 L 35.71 23.986 L 35.779 24.037 L 35.854 24.082 L 35.932 24.119 L 36.013 24.148 L 36.097 24.169 L 36.183 24.181 L 36.269 24.186 L 36.356 24.181 L 36.441 24.169 L 36.525 24.148 L 36.607 24.119 L 36.685 24.082 L 36.759 24.037 L 36.829 23.986 L 36.893 23.927 L 36.951 23.863 L 37.003 23.794 L 37.047 23.72 L 37.084 23.641 L 37.113 23.56 L 37.134 23.476 L 37.147 23.39 L 37.151 23.304 L 37.151 16.656 L 37.147 16.57 L 37.134 16.484 L 37.113 16.4 L 37.084 16.319 L 37.047 16.24 L 37.003 16.166 L 36.951 16.097 L 36.893 16.033 L 36.829 15.974 L 36.759 15.923 L 36.685 15.878 L 36.607 15.841 L 36.525 15.812 L 36.441 15.791 L 36.356 15.779 L 36.269 15.774 L 36.183 15.779 L 36.097 15.791 L 36.013 15.812 L 35.932 15.841 L 35.854 15.878 L 35.779 15.923 L 35.71 15.974 L 35.646 16.033 L 35.588 16.097 L 35.536 16.166 L 35.492 16.24 L 35.455 16.319 L 35.425 16.4 L 35.404 16.484 L 35.392 16.57 L 35.387 16.656 Z"/>
    <path d="M 38.652 26.064 L 38.656 26.15 L 38.669 26.236 L 38.69 26.32 L 38.719 26.401 L 38.756 26.48 L 38.801 26.554 L 38.852 26.623 L 38.91 26.687 L 38.975 26.746 L 39.044 26.797 L 39.118 26.842 L 39.197 26.879 L 39.278 26.908 L 39.362 26.929 L 39.448 26.941 L 39.534 26.946 L 39.62 26.941 L 39.706 26.929 L 39.79 26.908 L 39.871 26.879 L 39.95 26.842 L 40.024 26.797 L 40.093 26.746 L 40.158 26.687 L 40.216 26.623 L 40.267 26.554 L 40.312 26.48 L 40.349 26.401 L 40.378 26.32 L 40.399 26.236 L 40.412 26.15 L 40.416 26.064 L 40.416 13.896 L 40.412 13.81 L 40.399 13.724 L 40.378 13.64 L 40.349 13.559 L 40.312 13.48 L 40.267 13.406 L 40.216 13.337 L 40.158 13.273 L 40.093 13.214 L 40.024 13.163 L 39.95 13.118 L 39.871 13.081 L 39.79 13.052 L 39.706 13.031 L 39.62 13.019 L 39.534 13.014 L 39.448 13.019 L 39.362 13.031 L 39.278 13.052 L 39.197 13.081 L 39.118 13.118 L 39.044 13.163 L 38.975 13.214 L 38.91 13.273 L 38.852 13.337 L 38.801 13.406 L 38.756 13.48 L 38.719 13.559 L 38.69 13.64 L 38.669 13.724 L 38.656 13.81 L 38.652 13.896 Z"/>
    <path d="M 41.917 26.984 L 41.921 27.07 L 41.934 27.156 L 41.955 27.24 L 41.984 27.321 L 42.021 27.4 L 42.065 27.474 L 42.117 27.543 L 42.175 27.607 L 42.239 27.666 L 42.309 27.717 L 42.383 27.762 L 42.461 27.799 L 42.543 27.828 L 42.627 27.849 L 42.712 27.861 L 42.799 27.866 L 42.885 27.861 L 42.971 27.849 L 43.055 27.828 L 43.136 27.799 L 43.214 27.762 L 43.289 27.717 L 43.358 27.666 L 43.422 27.607 L 43.48 27.543 L 43.532 27.474 L 43.576 27.4 L 43.613 27.321 L 43.643 27.24 L 43.664 27.156 L 43.676 27.07 L 43.681 26.984 L 43.681 12.976 L 43.676 12.89 L 43.664 12.804 L 43.643 12.72 L 43.613 12.639 L 43.576 12.56 L 43.532 12.486 L 43.48 12.417 L 43.422 12.353 L 43.358 12.294 L 43.289 12.243 L 43.214 12.198 L 43.136 12.161 L 43.055 12.132 L 42.971 12.111 L 42.885 12.099 L 42.799 12.094 L 42.712 12.099 L 42.627 12.111 L 42.543 12.132 L 42.461 12.161 L 42.383 12.198 L 42.309 12.243 L 42.239 12.294 L 42.175 12.353 L 42.117 12.417 L 42.065 12.486 L 42.021 12.56 L 41.984 12.639 L 41.955 12.72 L 41.934 12.804 L 41.921 12.89 L 41.917 12.976 Z"/>
    <path d="M 45.184 25.144 L 45.188 25.23 L 45.201 25.316 L 45.222 25.4 L 45.251 25.481 L 45.288 25.56 L 45.333 25.634 L 45.384 25.703 L 45.442 25.767 L 45.507 25.826 L 45.576 25.877 L 45.65 25.922 L 45.729 25.959 L 45.81 25.988 L 45.894 26.009 L 45.98 26.021 L 46.066 26.026 L 46.152 26.021 L 46.238 26.009 L 46.322 25.988 L 46.403 25.959 L 46.482 25.922 L 46.556 25.877 L 46.625 25.826 L 46.69 25.767 L 46.748 25.703 L 46.799 25.634 L 46.844 25.56 L 46.881 25.481 L 46.91 25.4 L 46.931 25.316 L 46.944 25.23 L 46.948 25.144 L 46.948 14.816 L 46.944 14.73 L 46.931 14.644 L 46.91 14.56 L 46.881 14.479 L 46.844 14.4 L 46.799 14.326 L 46.748 14.257 L 46.69 14.193 L 46.625 14.134 L 46.556 14.083 L 46.482 14.038 L 46.403 14.001 L 46.322 13.972 L 46.238 13.951 L 46.152 13.939 L 46.066 13.934 L 45.98 13.939 L 45.894 13.951 L 45.81 13.972 L 45.729 14.001 L 45.65 14.038 L 45.576 14.083 L 45.507 14.134 L 45.442 14.193 L 45.384 14.257 L 45.333 14.326 L 45.288 14.4 L 45.251 14.479 L 45.222 14.56 L 45.201 14.644 L 45.188 14.73 L 45.184 14.816 Z"/>
    <path d="M 48.449 26.984 L 48.453 27.07 L 48.466 27.156 L 48.487 27.24 L 48.516 27.321 L 48.553 27.4 L 48.597 27.474 L 48.649 27.543 L 48.707 27.607 L 48.771 27.666 L 48.841 27.717 L 48.915 27.762 L 48.993 27.799 L 49.075 27.828 L 49.159 27.849 L 49.244 27.861 L 49.331 27.866 L 49.417 27.861 L 49.503 27.849 L 49.587 27.828 L 49.668 27.799 L 49.746 27.762 L 49.821 27.717 L 49.89 27.666 L 49.954 27.607 L 50.012 27.543 L 50.064 27.474 L 50.108 27.4 L 50.145 27.321 L 50.175 27.24 L 50.196 27.156 L 50.208 27.07 L 50.213 26.984 L 50.213 12.976 L 50.208 12.89 L 50.196 12.804 L 50.175 12.72 L 50.145 12.639 L 50.108 12.56 L 50.064 12.486 L 50.012 12.417 L 49.954 12.353 L 49.89 12.294 L 49.821 12.243 L 49.746 12.198 L 49.668 12.161 L 49.587 12.132 L 49.503 12.111 L 49.417 12.099 L 49.331 12.094 L 49.244 12.099 L 49.159 12.111 L 49.075 12.132 L 48.993 12.161 L 48.915 12.198 L 48.841 12.243 L 48.771 12.294 L 48.707 12.353 L 48.649 12.417 L 48.597 12.486 L 48.553 12.56 L 48.516 12.639 L 48.487 12.72 L 48.466 12.804 L 48.453 12.89 L 48.449 12.976 Z"/>
    <path d="M 51.713 20.544 L 51.718 20.63 L 51.73 20.716 L 51.751 20.8 L 51.781 20.881 L 51.818 20.96 L 51.862 21.034 L 51.914 21.103 L 51.972 21.167 L 52.036 21.226 L 52.105 21.277 L 52.18 21.322 L 52.258 21.359 L 52.339 21.388 L 52.423 21.409 L 52.509 21.421 L 52.595 21.426 L 52.682 21.421 L 52.767 21.409 L 52.851 21.388 L 52.933 21.359 L 53.011 21.322 L 53.085 21.277 L 53.155 21.226 L 53.219 21.167 L 53.277 21.103 L 53.329 21.034 L 53.373 20.96 L 53.41 20.881 L 53.439 20.8 L 53.46 20.716 L 53.473 20.63 L 53.477 20.544 L 53.477 19.416 L 53.473 19.33 L 53.46 19.244 L 53.439 19.16 L 53.41 19.079 L 53.373 19 L 53.329 18.926 L 53.277 18.857 L 53.219 18.793 L 53.155 18.734 L 53.085 18.683 L 53.011 18.638 L 52.933 18.601 L 52.851 18.572 L 52.767 18.551 L 52.682 18.539 L 52.595 18.534 L 52.509 18.539 L 52.423 18.551 L 52.339 18.572 L 52.258 18.601 L 52.18 18.638 L 52.105 18.683 L 52.036 18.734 L 51.972 18.793 L 51.914 18.857 L 51.862 18.926 L 51.818 19 L 51.781 19.079 L 51.751 19.16 L 51.73 19.244 L 51.718 19.33 L 51.713 19.416 Z"/>
    <path d="M 54.978 24.224 L 54.982 24.31 L 54.995 24.396 L 55.016 24.48 L 55.045 24.561 L 55.082 24.64 L 55.127 24.714 L 55.178 24.783 L 55.236 24.847 L 55.301 24.906 L 55.37 24.957 L 55.444 25.002 L 55.523 25.039 L 55.604 25.068 L 55.688 25.089 L 55.774 25.101 L 55.86 25.106 L 55.946 25.101 L 56.032 25.089 L 56.116 25.068 L 56.198 25.039 L 56.276 25.002 L 56.35 24.957 L 56.42 24.906 L 56.484 24.847 L 56.542 24.783 L 56.593 24.714 L 56.638 24.64 L 56.675 24.561 L 56.704 24.48 L 56.725 24.396 L 56.738 24.31 L 56.742 24.224 L 56.742 15.736 L 56.738 15.65 L 56.725 15.564 L 56.704 15.48 L 56.675 15.399 L 56.638 15.32 L 56.593 15.246 L 56.542 15.177 L 56.484 15.113 L 56.42 15.054 L 56.35 15.003 L 56.276 14.958 L 56.198 14.921 L 56.116 14.892 L 56.032 14.871 L 55.946 14.859 L 55.86 14.854 L 55.774 14.859 L 55.688 14.871 L 55.604 14.892 L 55.523 14.921 L 55.444 14.958 L 55.37 15.003 L 55.301 15.054 L 55.236 15.113 L 55.178 15.177 L 55.127 15.246 L 55.082 15.32 L 55.045 15.399 L 55.016 15.48 L 54.995 15.564 L 54.982 15.65 L 54.978 15.736 Z"/>
    <path d="M 58.245 26.984 L 58.25 27.07 L 58.262 27.156 L 58.283 27.24 L 58.313 27.321 L 58.35 27.4 L 58.394 27.474 L 58.446 27.543 L 58.504 27.607 L 58.568 27.666 L 58.637 27.717 L 58.712 27.762 L 58.79 27.799 L 58.871 27.828 L 58.955 27.849 L 59.041 27.861 L 59.127 27.866 L 59.214 27.861 L 59.299 27.849 L 59.383 27.828 L 59.465 27.799 L 59.543 27.762 L 59.617 27.717 L 59.687 27.666 L 59.751 27.607 L 59.809 27.543 L 59.861 27.474 L 59.905 27.4 L 59.942 27.321 L 59.971 27.24 L 59.992 27.156 L 60.005 27.07 L 60.009 26.984 L 60.009 12.976 L 60.005 12.89 L 59.992 12.804 L 59.971 12.72 L 59.942 12.639 L 59.905 12.56 L 59.861 12.486 L 59.809 12.417 L 59.751 12.353 L 59.687 12.294 L 59.617 12.243 L 59.543 12.198 L 59.465 12.161 L 59.383 12.132 L 59.299 12.111 L 59.214 12.099 L 59.127 12.094 L 59.041 12.099 L 58.955 12.111 L 58.871 12.132 L 58.79 12.161 L 58.712 12.198 L 58.637 12.243 L 58.568 12.294 L 58.504 12.353 L 58.446 12.417 L 58.394 12.486 L 58.35 12.56 L 58.313 12.639 L 58.283 12.72 L 58.262 12.804 L 58.25 12.89 L 58.245 12.976 Z"/>
    <path d="M 61.51 26.984 L 61.514 27.07 L 61.527 27.156 L 61.548 27.24 L 61.577 27.321 L 61.614 27.4 L 61.659 27.474 L 61.71 27.543 L 61.768 27.607 L 61.833 27.666 L 61.902 27.717 L 61.976 27.762 L 62.055 27.799 L 62.136 27.828 L 62.22 27.849 L 62.306 27.861 L 62.392 27.866 L 62.478 27.861 L 62.564 27.849 L 62.648 27.828 L 62.73 27.799 L 62.808 27.762 L 62.882 27.717 L 62.952 27.666 L 63.016 27.607 L 63.074 27.543 L 63.125 27.474 L 63.17 27.4 L 63.207 27.321 L 63.236 27.24 L 63.257 27.156 L 63.27 27.07 L 63.274 26.984 L 63.274 12.976 L 63.27 12.89 L 63.257 12.804 L 63.236 12.72 L 63.207 12.639 L 63.17 12.56 L 63.125 12.486 L 63.074 12.417 L 63.016 12.353 L 62.952 12.294 L 62.882 12.243 L 62.808 12.198 L 62.73 12.161 L 62.648 12.132 L 62.564 12.111 L 62.478 12.099 L 62.392 12.094 L 62.306 12.099 L 62.22 12.111 L 62.136 12.132 L 62.055 12.161 L 61.976 12.198 L 61.902 12.243 L 61.833 12.294 L 61.768 12.353 L 61.71 12.417 L 61.659 12.486 L 61.614 12.56 L 61.577 12.639 L 61.548 12.72 L 61.527 12.804 L 61.514 12.89 L 61.51 12.976 Z"/>
    <path d="M 64.775 24.224 L 64.779 24.31 L 64.792 24.396 L 64.813 24.48 L 64.842 24.561 L 64.879 24.64 L 64.923 24.714 L 64.975 24.783 L 65.033 24.847 L 65.097 24.906 L 65.167 24.957 L 65.241 25.002 L 65.319 25.039 L 65.401 25.068 L 65.485 25.089 L 65.57 25.101 L 65.657 25.106 L 65.743 25.101 L 65.829 25.089 L 65.913 25.068 L 65.994 25.039 L 66.072 25.002 L 66.147 24.957 L 66.216 24.906 L 66.28 24.847 L 66.338 24.783 L 66.39 24.714 L 66.434 24.64 L 66.471 24.561 L 66.501 24.48 L 66.522 24.396 L 66.534 24.31 L 66.539 24.224 L 66.539 15.736 L 66.534 15.65 L 66.522 15.564 L 66.501 15.48 L 66.471 15.399 L 66.434 15.32 L 66.39 15.246 L 66.338 15.177 L 66.28 15.113 L 66.216 15.054 L 66.147 15.003 L 66.072 14.958 L 65.994 14.921 L 65.913 14.892 L 65.829 14.871 L 65.743 14.859 L 65.657 14.854 L 65.57 14.859 L 65.485 14.871 L 65.401 14.892 L 65.319 14.921 L 65.241 14.958 L 65.167 15.003 L 65.097 15.054 L 65.033 15.113 L 64.975 15.177 L 64.923 15.246 L 64.879 15.32 L 64.842 15.399 L 64.813 15.48 L 64.792 15.564 L 64.779 15.65 L 64.775 15.736 Z"/>
    <path d="M 68.04 23.304 L 68.044 23.39 L 68.056 23.476 L 68.078 23.56 L 68.107 23.641 L 68.144 23.72 L 68.188 23.794 L 68.24 23.863 L 68.298 23.927 L 68.362 23.986 L 68.431 24.037 L 68.506 24.082 L 68.584 24.119 L 68.665 24.148 L 68.749 24.169 L 68.835 24.181 L 68.921 24.186 L 69.008 24.181 L 69.093 24.169 L 69.177 24.148 L 69.259 24.119 L 69.337 24.082 L 69.411 24.037 L 69.481 23.986 L 69.545 23.927 L 69.603 23.863 L 69.655 23.794 L 69.699 23.72 L 69.736 23.641 L 69.765 23.56 L 69.786 23.476 L 69.799 23.39 L 69.803 23.304 L 69.803 16.656 L 69.799 16.57 L 69.786 16.484 L 69.765 16.4 L 69.736 16.319 L 69.699 16.24 L 69.655 16.166 L 69.603 16.097 L 69.545 16.033 L 69.481 15.974 L 69.411 15.923 L 69.337 15.878 L 69.259 15.841 L 69.177 15.812 L 69.093 15.791 L 69.008 15.779 L 68.921 15.774 L 68.835 15.779 L 68.749 15.791 L 68.665 15.812 L 68.584 15.841 L 68.506 15.878 L 68.431 15.923 L 68.362 15.974 L 68.298 16.033 L 68.24 16.097 L 68.188 16.166 L 68.144 16.24 L 68.107 16.319 L 68.078 16.4 L 68.056 16.484 L 68.044 16.57 L 68.04 16.656 Z"/>
    <path d="M 71.304 24.224 L 71.308 24.31 L 71.321 24.396 L 71.342 24.48 L 71.371 24.561 L 71.408 24.64 L 71.453 24.714 L 71.504 24.783 L 71.563 24.847 L 71.627 24.906 L 71.696 24.957 L 71.77 25.002 L 71.849 25.039 L 71.93 25.068 L 72.014 25.089 L 72.1 25.101 L 72.186 25.106 L 72.273 25.101 L 72.358 25.089 L 72.442 25.068 L 72.524 25.039 L 72.602 25.002 L 72.676 24.957 L 72.746 24.906 L 72.81 24.847 L 72.868 24.783 L 72.919 24.714 L 72.964 24.64 L 73.001 24.561 L 73.03 24.48 L 73.051 24.396 L 73.064 24.31 L 73.068 24.224 L 73.068 15.736 L 73.064 15.65 L 73.051 15.564 L 73.03 15.48 L 73.001 15.399 L 72.964 15.32 L 72.919 15.246 L 72.868 15.177 L 72.81 15.113 L 72.746 15.054 L 72.676 15.003 L 72.602 14.958 L 72.524 14.921 L 72.442 14.892 L 72.358 14.871 L 72.273 14.859 L 72.186 14.854 L 72.1 14.859 L 72.014 14.871 L 71.93 14.892 L 71.849 14.921 L 71.77 14.958 L 71.696 15.003 L 71.627 15.054 L 71.563 15.113 L 71.504 15.177 L 71.453 15.246 L 71.408 15.32 L 71.371 15.399 L 71.342 15.48 L 71.321 15.564 L 71.308 15.65 L 71.304 15.736 Z"/>
    <path d="M 74.572 21.464 L 74.576 21.55 L 74.588 21.636 L 74.61 21.72 L 74.639 21.801 L 74.676 21.88 L 74.72 21.954 L 74.772 22.023 L 74.83 22.087 L 74.894 22.146 L 74.963 22.197 L 75.038 22.242 L 75.116 22.279 L 75.197 22.308 L 75.281 22.329 L 75.367 22.341 L 75.453 22.346 L 75.54 22.341 L 75.625 22.329 L 75.709 22.308 L 75.791 22.279 L 75.869 22.242 L 75.943 22.197 L 76.013 22.146 L 76.077 22.087 L 76.135 22.023 L 76.187 21.954 L 76.231 21.88 L 76.268 21.801 L 76.297 21.72 L 76.318 21.636 L 76.331 21.55 L 76.335 21.464 L 76.335 18.496 L 76.331 18.41 L 76.318 18.324 L 76.297 18.24 L 76.268 18.159 L 76.231 18.08 L 76.187 18.006 L 76.135 17.937 L 76.077 17.873 L 76.013 17.814 L 75.943 17.763 L 75.869 17.718 L 75.791 17.681 L 75.709 17.652 L 75.625 17.631 L 75.54 17.619 L 75.453 17.614 L 75.367 17.619 L 75.281 17.631 L 75.197 17.652 L 75.116 17.681 L 75.038 17.718 L 74.963 17.763 L 74.894 17.814 L 74.83 17.873 L 74.772 17.937 L 74.72 18.006 L 74.676 18.08 L 74.639 18.159 L 74.61 18.24 L 74.588 18.324 L 74.576 18.41 L 74.572 18.496 Z"/>
    <path d="M 77.836 20.544 L 77.84 20.63 L 77.853 20.716 L 77.874 20.8 L 77.903 20.881 L 77.94 20.96 L 77.985 21.034 L 78.036 21.103 L 78.095 21.167 L 78.159 21.226 L 78.228 21.277 L 78.302 21.322 L 78.381 21.359 L 78.462 21.388 L 78.546 21.409 L 78.632 21.421 L 78.718 21.426 L 78.805 21.421 L 78.89 21.409 L 78.974 21.388 L 79.056 21.359 L 79.134 21.322 L 79.208 21.277 L 79.278 21.226 L 79.342 21.167 L 79.4 21.103 L 79.451 21.034 L 79.496 20.96 L 79.533 20.881 L 79.562 20.8 L 79.583 20.716 L 79.596 20.63 L 79.6 20.544 L 79.6 19.416 L 79.596 19.33 L 79.583 19.244 L 79.562 19.16 L 79.533 19.079 L 79.496 19 L 79.451 18.926 L 79.4 18.857 L 79.342 18.793 L 79.278 18.734 L 79.208 18.683 L 79.134 18.638 L 79.056 18.601 L 78.974 18.572 L 78.89 18.551 L 78.805 18.539 L 78.718 18.534 L 78.632 18.539 L 78.546 18.551 L 78.462 18.572 L 78.381 18.601 L 78.302 18.638 L 78.228 18.683 L 78.159 18.734 L 78.095 18.793 L 78.036 18.857 L 77.985 18.926 L 77.94 19 L 77.903 19.079 L 77.874 19.16 L 77.853 19.244 L 77.84 19.33 L 77.836 19.416 Z"/>
    <path d="M 15.828 40.5 L 18.252 40.5 L 18.252 40.197 L 18.555 40.197 L 18.555 39.894 L 18.858 39.894 L 18.858 38.682 L 18.252 38.682 L 18.252 38.076 L 16.434 38.076 L 16.434 37.166 L 16.737 37.166 L 16.737 36.863 L 18.858 36.863 L 18.858 36.257 L 16.434 36.257 L 16.434 36.863 L 15.828 36.863 L 15.828 38.076 L 16.131 38.076 L 16.131 38.379 L 16.434 38.379 L 16.434 38.682 L 17.949 38.682 L 17.949 38.985 L 18.252 38.985 L 18.252 39.894 L 15.828 39.894 Z"/>
    <path d="M 20.07 40.5 L 20.677 40.5 L 20.677 40.197 L 21.283 40.197 L 21.283 40.5 L 21.889 40.5 L 21.889 40.197 L 22.192 40.197 L 22.192 39.894 L 22.495 39.894 L 22.495 37.469 L 21.889 37.469 L 21.889 39.894 L 21.283 39.894 L 21.283 38.682 L 20.677 38.682 L 20.677 39.894 L 20.07 39.894 L 20.07 37.469 L 19.464 37.469 L 19.464 39.894 L 19.767 39.894 L 19.767 40.197 L 20.07 40.197 Z"/>
    <path d="M 23.707 40.5 L 25.526 40.5 L 25.526 39.894 L 23.707 39.894 L 23.707 39.288 L 26.132 39.288 L 26.132 38.076 L 25.526 38.076 L 25.526 37.469 L 23.707 37.469 L 23.707 38.076 L 23.101 38.076 L 23.101 39.894 L 23.404 39.894 L 23.404 40.197 L 23.707 40.197 Z M 23.707 38.682 L 23.707 38.379 L 24.01 38.379 L 24.01 38.076 L 25.222 38.076 L 25.222 38.379 L 25.526 38.379 L 25.526 38.682 Z"/>
    <path d="M 27.344 40.5 L 29.768 40.5 L 29.768 38.076 L 29.162 38.076 L 29.162 37.469 L 27.344 37.469 L 27.344 38.076 L 28.859 38.076 L 28.859 38.379 L 29.162 38.379 L 29.162 38.682 L 27.344 38.682 L 27.344 39.288 L 26.738 39.288 L 26.738 39.894 L 27.041 39.894 L 27.041 40.197 L 27.344 40.197 Z M 27.344 39.894 L 27.344 39.591 L 27.647 39.591 L 27.647 39.288 L 29.162 39.288 L 29.162 39.894 Z"/>
    <path d="M 31.587 40.5 L 32.799 40.5 L 32.799 40.197 L 33.102 40.197 L 33.102 39.894 L 33.405 39.894 L 33.405 39.288 L 32.799 39.288 L 32.799 39.894 L 31.587 39.894 L 31.587 38.076 L 32.193 38.076 L 32.193 37.469 L 31.587 37.469 L 31.587 36.257 L 30.981 36.257 L 30.981 37.469 L 30.374 37.469 L 30.374 38.076 L 30.981 38.076 L 30.981 39.894 L 31.284 39.894 L 31.284 40.197 L 31.587 40.197 Z"/>
    <path d="M 34.617 40.5 L 36.436 40.5 L 36.436 39.894 L 34.617 39.894 L 34.617 39.288 L 37.042 39.288 L 37.042 38.076 L 36.436 38.076 L 36.436 37.469 L 34.617 37.469 L 34.617 38.076 L 34.011 38.076 L 34.011 39.894 L 34.314 39.894 L 34.314 40.197 L 34.617 40.197 Z M 34.617 38.682 L 34.617 38.379 L 34.92 38.379 L 34.92 38.076 L 36.133 38.076 L 36.133 38.379 L 36.436 38.379 L 36.436 38.682 Z"/>
    <path d="M 37.648 40.5 L 38.254 40.5 L 38.254 38.682 L 38.86 38.682 L 38.86 38.379 L 39.163 38.379 L 39.163 38.076 L 39.769 38.076 L 39.769 38.379 L 40.072 38.379 L 40.072 38.682 L 40.679 38.682 L 40.679 38.076 L 40.072 38.076 L 40.072 37.469 L 38.86 37.469 L 38.86 38.076 L 38.254 38.076 L 38.254 37.469 L 37.648 37.469 Z"/>
    <path d="M 44.921 40.5 L 45.528 40.5 L 45.528 39.894 L 46.134 39.894 L 46.134 39.591 L 46.74 39.591 L 46.74 39.894 L 47.346 39.894 L 47.346 40.5 L 47.952 40.5 L 47.952 36.257 L 47.346 36.257 L 47.346 39.288 L 46.74 39.288 L 46.74 38.076 L 46.134 38.076 L 46.134 39.288 L 45.528 39.288 L 45.528 36.257 L 44.921 36.257 Z"/>
    <path d="M 49.164 40.5 L 50.983 40.5 L 50.983 39.894 L 49.164 39.894 L 49.164 39.288 L 51.589 39.288 L 51.589 38.076 L 50.983 38.076 L 50.983 37.469 L 49.164 37.469 L 49.164 38.076 L 48.558 38.076 L 48.558 39.894 L 48.861 39.894 L 48.861 40.197 L 49.164 40.197 Z M 49.164 38.682 L 49.164 38.379 L 49.467 38.379 L 49.467 38.076 L 50.68 38.076 L 50.68 38.379 L 50.983 38.379 L 50.983 38.682 Z"/>
    <path d="M 52.801 40.5 L 55.226 40.5 L 55.226 38.076 L 54.619 38.076 L 54.619 37.469 L 52.801 37.469 L 52.801 38.076 L 54.316 38.076 L 54.316 38.379 L 54.619 38.379 L 54.619 38.682 L 52.801 38.682 L 52.801 39.288 L 52.195 39.288 L 52.195 39.894 L 52.498 39.894 L 52.498 40.197 L 52.801 40.197 Z M 52.801 39.894 L 52.801 39.591 L 53.104 39.591 L 53.104 39.288 L 54.619 39.288 L 54.619 39.894 Z"/>
    <path d="M 57.044 40.5 L 58.256 40.5 L 58.256 40.197 L 58.559 40.197 L 58.559 39.894 L 58.862 39.894 L 58.862 39.288 L 58.256 39.288 L 58.256 39.894 L 57.044 39.894 L 57.044 38.076 L 57.65 38.076 L 57.65 37.469 L 57.044 37.469 L 57.044 36.257 L 56.438 36.257 L 56.438 37.469 L 55.832 37.469 L 55.832 38.076 L 56.438 38.076 L 56.438 39.894 L 56.741 39.894 L 56.741 40.197 L 57.044 40.197 Z"/>
    <path d="M 59.468 40.5 L 60.074 40.5 L 60.074 38.076 L 61.59 38.076 L 61.59 38.379 L 61.893 38.379 L 61.893 40.5 L 62.499 40.5 L 62.499 38.076 L 61.893 38.076 L 61.893 37.469 L 60.074 37.469 L 60.074 36.257 L 59.468 36.257 Z"/>
    <path d="M 63.711 40.5 L 65.53 40.5 L 65.53 39.894 L 63.711 39.894 L 63.711 39.288 L 66.136 39.288 L 66.136 38.076 L 65.53 38.076 L 65.53 37.469 L 63.711 37.469 L 63.711 38.076 L 63.105 38.076 L 63.105 39.894 L 63.408 39.894 L 63.408 40.197 L 63.711 40.197 Z M 63.711 38.682 L 63.711 38.379 L 64.014 38.379 L 64.014 38.076 L 65.227 38.076 L 65.227 38.379 L 65.53 38.379 L 65.53 38.682 Z"/>
    <path d="M 66.742 40.5 L 67.348 40.5 L 67.348 38.682 L 67.954 38.682 L 67.954 38.379 L 68.257 38.379 L 68.257 38.076 L 68.863 38.076 L 68.863 38.379 L 69.166 38.379 L 69.166 38.682 L 69.772 38.682 L 69.772 38.076 L 69.166 38.076 L 69.166 37.469 L 67.954 37.469 L 67.954 38.076 L 67.348 38.076 L 67.348 37.469 L 66.742 37.469 Z"/>
    <path d="M 13.403 46.44 L 14.009 46.44 L 14.009 42.803 L 15.221 42.803 L 15.221 42.197 L 12.191 42.197 L 12.191 42.803 L 13.403 42.803 Z"/>
    <path d="M 15.828 46.44 L 16.434 46.44 L 16.434 44.016 L 17.949 44.016 L 17.949 44.319 L 18.252 44.319 L 18.252 46.44 L 18.858 46.44 L 18.858 44.016 L 18.252 44.016 L 18.252 43.409 L 16.434 43.409 L 16.434 42.197 L 15.828 42.197 Z"/>
    <path d="M 20.07 46.44 L 21.889 46.44 L 21.889 45.834 L 20.07 45.834 L 20.07 45.228 L 22.495 45.228 L 22.495 44.016 L 21.889 44.016 L 21.889 43.409 L 20.07 43.409 L 20.07 44.016 L 19.464 44.016 L 19.464 45.834 L 19.767 45.834 L 19.767 46.137 L 20.07 46.137 Z M 20.07 44.622 L 20.07 44.319 L 20.373 44.319 L 20.373 44.016 L 21.586 44.016 L 21.586 44.319 L 21.889 44.319 L 21.889 44.622 Z"/>
    <path d="M 26.738 46.44 L 27.344 46.44 L 27.344 43.409 L 27.647 43.409 L 27.647 43.712 L 27.95 43.712 L 27.95 44.016 L 28.253 44.016 L 28.253 44.319 L 28.556 44.319 L 28.556 44.622 L 29.162 44.622 L 29.162 46.44 L 29.768 46.44 L 29.768 42.197 L 29.162 42.197 L 29.162 44.016 L 28.556 44.016 L 28.556 43.409 L 27.95 43.409 L 27.95 42.803 L 27.344 42.803 L 27.344 42.197 L 26.738 42.197 Z"/>
    <path d="M 30.981 46.44 L 32.799 46.44 L 32.799 45.834 L 30.981 45.834 L 30.981 45.228 L 33.405 45.228 L 33.405 44.016 L 32.799 44.016 L 32.799 43.409 L 30.981 43.409 L 30.981 44.016 L 30.374 44.016 L 30.374 45.834 L 30.678 45.834 L 30.678 46.137 L 30.981 46.137 Z M 30.981 44.622 L 30.981 44.319 L 31.284 44.319 L 31.284 44.016 L 32.496 44.016 L 32.496 44.319 L 32.799 44.319 L 32.799 44.622 Z"/>
    <path d="M 34.617 46.44 L 36.436 46.44 L 36.436 45.834 L 35.83 45.834 L 35.83 43.409 L 34.617 43.409 L 34.617 44.016 L 35.223 44.016 L 35.223 45.834 L 34.617 45.834 Z"/>
    <path d="M 38.254 46.44 L 40.072 46.44 L 40.072 46.137 L 40.376 46.137 L 40.376 45.834 L 40.679 45.834 L 40.679 42.803 L 38.254 42.803 L 38.254 43.409 L 37.648 43.409 L 37.648 44.622 L 37.951 44.622 L 37.951 44.925 L 38.254 44.925 L 38.254 45.228 L 40.072 45.228 L 40.072 45.834 L 38.254 45.834 Z M 38.254 44.622 L 38.254 43.712 L 38.557 43.712 L 38.557 43.409 L 40.072 43.409 L 40.072 44.622 Z"/>
    <path d="M 41.285 46.44 L 41.891 46.44 L 41.891 44.016 L 43.406 44.016 L 43.406 44.319 L 43.709 44.319 L 43.709 46.44 L 44.315 46.44 L 44.315 44.016 L 43.709 44.016 L 43.709 43.409 L 41.891 43.409 L 41.891 42.197 L 41.285 42.197 Z"/>
    <path d="M 44.921 46.44 L 47.346 46.44 L 47.346 46.137 L 47.649 46.137 L 47.649 45.834 L 47.952 45.834 L 47.952 44.016 L 47.346 44.016 L 47.346 43.409 L 45.528 43.409 L 45.528 42.197 L 44.921 42.197 Z M 45.528 45.834 L 45.528 44.016 L 47.043 44.016 L 47.043 44.319 L 47.346 44.319 L 47.346 45.834 Z"/>
    <path d="M 49.164 46.44 L 50.983 46.44 L 50.983 46.137 L 51.286 46.137 L 51.286 45.834 L 51.589 45.834 L 51.589 44.016 L 50.983 44.016 L 50.983 43.409 L 49.164 43.409 L 49.164 44.016 L 48.558 44.016 L 48.558 45.834 L 48.861 45.834 L 48.861 46.137 L 49.164 46.137 Z M 49.164 45.834 L 49.164 44.319 L 49.467 44.319 L 49.467 44.016 L 50.68 44.016 L 50.68 44.319 L 50.983 44.319 L 50.983 45.834 Z"/>
    <path d="M 52.801 46.44 L 55.226 46.44 L 55.226 43.409 L 54.619 43.409 L 54.619 45.834 L 52.801 45.834 L 52.801 43.409 L 52.195 43.409 L 52.195 45.834 L 52.498 45.834 L 52.498 46.137 L 52.801 46.137 Z"/>
    <path d="M 55.832 46.44 L 56.438 46.44 L 56.438 44.622 L 57.044 44.622 L 57.044 44.319 L 57.347 44.319 L 57.347 44.016 L 57.953 44.016 L 57.953 44.319 L 58.256 44.319 L 58.256 44.622 L 58.862 44.622 L 58.862 44.016 L 58.256 44.016 L 58.256 43.409 L 57.044 43.409 L 57.044 44.016 L 56.438 44.016 L 56.438 43.409 L 55.832 43.409 Z"/>
    <path d="M 59.468 46.44 L 60.074 46.44 L 60.074 44.016 L 61.59 44.016 L 61.59 44.319 L 61.893 44.319 L 61.893 46.44 L 62.499 46.44 L 62.499 44.016 L 61.893 44.016 L 61.893 43.409 L 60.074 43.409 L 60.074 42.197 L 59.468 42.197 Z"/>
    <path d="M 63.711 46.44 L 65.53 46.44 L 65.53 46.137 L 65.833 46.137 L 65.833 45.834 L 66.136 45.834 L 66.136 44.016 L 65.53 44.016 L 65.53 43.409 L 63.711 43.409 L 63.711 44.016 L 63.105 44.016 L 63.105 45.834 L 63.408 45.834 L 63.408 46.137 L 63.711 46.137 Z M 63.711 45.834 L 63.711 44.319 L 64.014 44.319 L 64.014 44.016 L 65.227 44.016 L 65.227 44.319 L 65.53 44.319 L 65.53 45.834 Z"/>
    <path d="M 67.348 46.44 L 69.166 46.44 L 69.166 46.137 L 69.469 46.137 L 69.469 45.834 L 69.772 45.834 L 69.772 44.016 L 69.166 44.016 L 69.166 43.409 L 67.348 43.409 L 67.348 44.016 L 66.742 44.016 L 66.742 45.834 L 67.045 45.834 L 67.045 46.137 L 67.348 46.137 Z M 67.348 45.834 L 67.348 44.319 L 67.651 44.319 L 67.651 44.016 L 68.863 44.016 L 68.863 44.319 L 69.166 44.319 L 69.166 45.834 Z"/>
    <path d="M 70.985 46.44 L 73.409 46.44 L 73.409 42.197 L 72.803 42.197 L 72.803 43.409 L 70.985 43.409 L 70.985 44.016 L 70.379 44.016 L 70.379 45.834 L 70.682 45.834 L 70.682 46.137 L 70.985 46.137 Z M 70.985 45.834 L 70.985 44.319 L 71.288 44.319 L 71.288 44.016 L 72.803 44.016 L 72.803 45.834 Z"/>
    <path d="M 35.223 42.803 L 35.83 42.803 L 35.83 42.197 L 35.223 42.197 Z"/>
  </g>
</svg>